<?xml version="1.0" encoding="UTF-8"?>
<svg version="1.1" viewBox="100 300 1800 1048" width="209" height="100" xmlns="http://www.w3.org/2000/svg">
<path transform="translate(292,459)" d="m0 0c10.4 4.48 20.7 9.12 31 13.9 4.8 2.21 9.6 4.39 14.5 6.44 0.828 0.352 1.66 0.704 2.51 1.07 1.53 0.647 3.07 1.28 4.61 1.9 4.42 1.88 6.48 3.34 8.44 7.72 0.303 0.656 0.607 1.31 0.919 1.99 1.05 2.3 2.07 4.62 3.08 6.95 2.22 5.09 4.51 10.1 7 15.1 0.33 0.99 0.66 1.98 1 3 0.649 1.34 1.32 2.67 2 4 1.21 2.35 2.16 4.48 3 7 1.28 2.62 2.59 5.22 3.95 7.8 1.33 2.78 2.4 5.63 3.49 8.52 1.76 4.61 3.57 9.17 5.56 13.7h2c0.227 1.28 0.454 2.56 0.688 3.88 1.03 4.67 2.86 8.55 5.07 12.8 4.24 8.07 4.24 8.07 4.24 12.4h-2c-0.251 0.561-0.503 1.12-0.762 1.7-4.16 7.72-11.1 14.4-16.9 21.1-0.526 0.613-1.05 1.23-1.59 1.86-3.17 3.66-6.47 7.1-9.92 10.5-1.79 1.82-3.45 3.7-5.11 5.64-3.63 4.18-7.46 8.11-11.4 12-1.06 1.06-1.06 1.06-2.13 2.13-1.48 1.48-2.96 2.95-4.43 4.43-2.24 2.24-4.48 4.48-6.72 6.73-1.45 1.44-2.89 2.89-4.34 4.33-0.659 0.661-1.32 1.32-2 2-3.87 3.85-7.85 7.52-12 11.1-2.59 2.24-5.08 4.58-7.58 6.91-8.66 7.99-17.8 15.2-27.3 22.2-3.02 2.25-6.03 4.51-9.04 6.76-1.74 1.3-3.48 2.61-5.22 3.91-3.91 2.93-7.81 5.86-11.7 8.83-7.79 5.94-15.7 11.6-23.8 17.1-0.971 0.669-1.94 1.34-2.94 2.03-0.904 0.615-1.81 1.23-2.74 1.86-0.809 0.552-1.62 1.1-2.45 1.67-1.99 1.19-1.99 1.19-3.99 1.19v-3h-2c-1.42-3.82-2.24-6.91-2-11-0.66-0.33-1.32-0.66-2-1 0.0412-0.763 0.0825-1.53 0.125-2.31 0.0958-2.91 0.0958-2.91-2.12-5.69-0.813-5.69 0.106-8.6 3-13.6 2.55-4.41 4.18-7.25 3-12.4-1.72-2.92-3.82-5.42-6-8-1.25-1.64-2.5-3.29-3.75-4.94-2.22-3.03-2.22-3.03-5.25-5.06-2.06 0.626-4.08 1.36-6.08 2.13-0.61 0.234-1.22 0.467-1.85 0.708-1.96 0.754-3.92 1.52-5.88 2.28-1.28 0.493-2.56 0.985-3.83 1.48-5.03 1.94-10.1 3.88-15.1 5.88-1.15 0.457-2.3 0.913-3.49 1.38-1.02 0.411-2.05 0.822-3.1 1.25-2.7 0.887-2.7 0.887-6.7 0.887-9.1-27.3 19.2-77.5 31.2-102 5.84-11.6 12.2-22.9 18.8-34.2 0.658-1.14 1.32-2.28 1.99-3.45 9.13-15.8 18.5-31.4 28.3-46.8 1.68-2.66 3.35-5.32 5.01-7.98 5.68-9.08 11.5-18 17.7-26.7 8.01 0.689 15.7 2.33 23.6 4.06 1.31 0.285 2.62 0.569 3.92 0.854 3.17 0.691 6.34 1.39 9.51 2.08 0.234-4.41 0.234-4.41-1.44-8.38-2.12-3.56-2.13-6.51-2.56-10.6zm-80 259 1 2zm4 14 1 2z" fill="#F8B952"/>
<path transform="translate(436,512)" d="m0 0c12.4 1.31 22.4 4.59 31 14 1.88 3.19 1.88 3.19 3 6 0.371 0.722 0.743 1.44 1.12 2.19 0.875 1.81 0.875 1.81 1.88 4.81 0.393 0.971 0.786 1.94 1.19 2.94 4.46 11.8 6.49 24.3 1.81 36.4-0.946 1.92-1.95 3.82-3 5.69-0.889 1.6-0.889 1.6-1.8 3.23-5.08 8.66-11.2 16.2-17.8 23.8-7.8 9.23-13.1 19.3-18.5 30.1-3.68 7.36-7.44 14.7-11.2 22-1.34 2.63-2.68 5.27-4.02 7.9-4.57 8.97-9.26 17.8-14.2 26.6-3.8 6.78-7.39 13.6-10.9 20.6-1.28 2.49-2.56 4.99-3.85 7.48-0.316 0.615-0.632 1.23-0.958 1.86-2.11 4.1-4.24 8.19-6.38 12.3-0.826 1.57-0.826 1.57-1.67 3.18-1.03 1.96-2.06 3.92-3.09 5.87-0.458 0.872-0.916 1.74-1.39 2.64-0.397 0.753-0.794 1.51-1.2 2.28-0.36 0.732-0.72 1.46-1.09 2.22-0.377 0.732-0.755 1.46-1.14 2.22-2.22 7.21-0.555 14.9 0.675 22.2 0.155 0.957 0.311 1.91 0.471 2.9 0.493 3.03 0.995 6.05 1.5 9.08 0.501 3.05 1 6.09 1.5 9.14 0.309 1.89 0.62 3.78 0.935 5.67 0.14 0.852 0.28 1.7 0.425 2.58 0.124 0.748 0.249 1.5 0.377 2.27 0.266 1.97 0.266 1.97 0.266 4.97-1.34 1.25-1.34 1.25-3.23 2.5-0.696 0.47-1.39 0.941-2.11 1.43-0.755 0.5-1.51 1-2.29 1.52-5.99 4.1-11.8 8.31-17.3 13-0.584 0.483-1.17 0.967-1.77 1.46-3.2 2.76-5.3 4.95-6.29 9.1-0.0653 2.96-0.0653 2.96 0.312 6 0.0993 1.01 0.199 2.02 0.301 3.06 0.353 2.68 0.819 5.3 1.39 7.94-5.17 4.85-10.7 9.03-16.5 13.1-4.51 3.18-8.89 6.49-13.2 9.87-12.6 9.77-25.6 19.1-38.6 28.4-2.57 1.85-5.13 3.72-7.66 5.64-4.18-1.56-6.51-4.64-9.25-8-0.731-0.881-0.731-0.881-1.48-1.78-3.4-4.11-6.74-8.26-10.1-12.4-2.86-3.59-5.76-7.16-8.66-10.7-0.566-0.696-1.13-1.39-1.71-2.11-3.11-3.82-6.23-7.64-9.35-11.5-0.697-0.853-1.39-1.71-2.11-2.59-1.31-1.6-2.62-3.2-3.94-4.79-3.86-4.68-7.68-9.38-11.5-14.1-0.737-0.928-1.47-1.86-2.23-2.81-0.843-1.14-0.843-1.14-1.7-2.31-0.463-0.621-0.926-1.24-1.4-1.88-1.61-4.87 2.85-11.5 4.93-16 0.345-0.754 0.69-1.51 1.05-2.29 0.727-1.59 1.46-3.17 2.19-4.76 1.11-2.41 2.22-4.83 3.32-7.25 0.71-1.55 1.42-3.1 2.13-4.64 0.328-0.716 0.656-1.43 0.995-2.17 1.43-3.1 2.89-6.17 4.44-9.22 1.92-3.93 1.77-7.37 1.29-11.6-0.913-2.79-0.913-2.79-2-5v-3c-5.07 0.716-8.38 2.96-12.6 5.72-3.17 1.69-5.87 1.28-9.4 1.28v4c-1.93 1.03-3.87 2.05-5.81 3.06-1.62 0.853-1.62 0.853-3.27 1.72-2.92 1.21-2.92 1.21-5.92 0.215 6.76-5.61 13.7-10.6 21.1-15.3 2.04-1.31 4.07-2.63 6.11-3.95 0.985-0.637 1.97-1.27 2.99-1.93 5.7-3.71 11.3-7.58 16.9-11.5 1.97-1.38 3.95-2.75 5.93-4.12 8.97-6.24 17.7-12.8 26.4-19.4 5.54-4.25 11.1-8.39 16.9-12.4 9.57-6.76 18.8-13.9 28.1-21.1 2.71-2.09 5.43-4.18 8.14-6.27 1.09-0.839 2.18-1.68 3.27-2.52 2.1-1.62 4.2-3.23 6.3-4.84 19.1-14.7 19.1-14.7 37.9-29.6 0.83-0.668 1.66-1.34 2.52-2.02 6.09-4.93 12-10 17.9-15.2 3.6-3.14 7.25-6.19 11-9.17 8.78-7.1 17.1-15 24.9-23.1 2.64-2.54 2.64-2.54 4.64-2.54 0.389-0.888 0.389-0.888 0.785-1.79 1.31-2.37 2.65-3.71 4.65-5.52 13.2-12.9 24.2-30.1 25.1-48.9-0.26-9.92-3.15-21.5-9.69-29.1-3.62-3.35-7.66-6.03-11.8-8.68-3-2-3-2-5-4zm26 31 1 2zm-246 237c-0.33 0.66-0.66 1.32-1 2 0.99-0.33 1.98-0.66 3-1-0.66-0.33-1.32-0.66-2-1z" fill="#BA1D30"/>
<path transform="translate(274,414)" d="m0 0 2 1c-0.783 0.947-0.783 0.947-1.58 1.91-4.46 5.42-8.88 10.9-13.2 16.4-0.683 0.861-0.683 0.861-1.38 1.74-2.11 2.68-4.08 5.36-5.98 8.21-1.99 2.98-4.31 5.21-6.83 7.74-0.722 1.09-1.44 2.19-2.19 3.31-0.598 0.887-1.2 1.77-1.81 2.69h-2c-0.237 0.692-0.474 1.38-0.719 2.1-1.52 3.45-3.56 6.33-5.78 9.34-0.91 1.25-1.82 2.51-2.73 3.76-0.463 0.635-0.927 1.27-1.4 1.92-1.68 2.3-3.33 4.62-4.98 6.94-8.33 11.7-16.7 23.4-25.4 34.9-4.96 6.54-9.61 13.3-14.2 20.1-3.35 4.94-6.79 9.78-10.3 14.6-6.13 8.27-11.8 16.8-17.4 25.4-0.988 1.5-0.988 1.5-2 3.03-5.03 7.64-10 15.3-15 23-0.557 0.857-1.11 1.71-1.69 2.6-33.8 50.2-33.8 50.2-43.3 108 0.975 3.87 2.26 7.41 4 11h2c1.23 1.54 1.23 1.54 2.62 3.62 7.48 10.3 18.2 14.4 30.4 16.4v3c-5.83 2.92-16.2 1.52-22.4-0.125-7.33-2.59-13.4-7.14-18.6-12.9-0.814-0.826-0.814-0.826-1.64-1.67-5.25-5.54-11.4-13.4-11.4-21.3h-2c-5.74-11.5 2.65-33.5 6-45-2.18-1.48-4.37-2.96-6.56-4.44-0.67-0.451-1.34-0.902-2.03-1.37-3.47-2.32-6.96-4.56-10.6-6.65-0.665-0.387-1.33-0.774-2.02-1.17-1.26-0.727-2.53-1.44-3.81-2.15-4.26-2.45-7.17-5.29-10-9.22-0.504-0.686-1.01-1.37-1.53-2.08-7.85-11.1-12-18.8-9.81-32.3 0.7-5.44 0.691-10.9 0.834-16.4 0.0847-2.5 0.171-5 0.258-7.5 0.171-5.18 0.307-10.4 0.422-15.5l0.0996-3.83c0.0623-2.41 0.114-4.82 0.152-7.23 0.356-12.8 0.356-12.8 5.52-18.1 0.758-0.544 1.52-1.09 2.3-1.65 4.62-3.47 8.98-7.13 13.3-10.9 4.02-3.51 8.03-6.99 12.2-10.2 0.677-0.545 1.35-1.09 2.05-1.65 2.14-1.54 2.14-1.54 4.87-2.85 3.51-1.97 5.13-3.22 7.27-6.68 1.34-7.44 1.09-15.1 0.84-22.6 0.16-2.4 0.16-2.4 2.16-4.4 1.95-0.743 1.95-0.743 4.39-1.45 0.919-0.267 1.84-0.535 2.78-0.81 1.01-0.287 2.03-0.574 3.07-0.869 1.62-0.466 1.62-0.466 3.28-0.942 8.96-2.55 18-4.94 27-7.3 9.31-2.46 18.6-5.04 27.9-7.66 1.29-0.363 2.57-0.726 3.86-1.09 5.21-1.47 10.4-2.94 15.6-4.42 3.69-1.05 7.39-2.1 11.1-3.14 1.12-0.319 2.23-0.639 3.38-0.968 5.24-1.48 10.3-2.77 15.7-3.35 0.33 4.29 0.66 8.58 1 13 1.86 0.495 3.71 0.99 5.62 1.5 1.04 0.278 2.09 0.557 3.16 0.844 3.32 0.678 5.85 1.12 9.21 0.656 2.58-2.04 2.58-2.04 5-5 1.17-1.24 2.34-2.48 3.52-3.71 1.28-1.37 2.57-2.74 3.85-4.11 0.634-0.674 1.27-1.35 1.92-2.04 5.21-5.56 10.2-11.3 15.2-17 0.709-0.817 1.42-1.63 2.15-2.48 1.07-1.25 1.07-1.25 2.16-2.52 2.35-2.23 4.22-2.97 7.21-4.1 1.61-1.45 1.61-1.45 2.81-3.12 0.722-0.949 1.44-1.9 2.19-2.88zm-195 293 1 2z" fill="#89C743"/>
<path transform="translate(350 606)" d="m0 0c0.763 0.0619 1.53 0.124 2.31 0.188 0.33 2.64 0.66 5.28 1 8 1.65 0.33 3.3 0.66 5 1v-4h6v2l2 1c-0.33 1.32-0.66 2.64-1 4l2 1c-9.85 10.8-20.1 21.2-30.4 31.6-0.657 0.659-1.31 1.32-1.99 2-12.8 12.8-12.8 12.8-18.9 18.1-2.56 2.17-4.99 4.47-7.44 6.76-8.66 7.99-17.8 15.2-27.3 22.2-3.02 2.25-6.03 4.51-9.04 6.76-1.74 1.3-3.48 2.61-5.22 3.91-3.91 2.93-7.81 5.86-11.7 8.83-7.79 5.94-15.7 11.6-23.8 17.1-0.971 0.669-1.94 1.34-2.94 2.03-0.904 0.615-1.81 1.23-2.74 1.86-0.809 0.552-1.62 1.1-2.45 1.67-1.99 1.19-1.99 1.19-3.99 1.19v-3h-2c-1.42-3.82-2.24-6.91-2-11l-2-1c0.0412-0.763 0.0825-1.53 0.125-2.31 0.0958-2.91 0.0958-2.91-2.12-5.69-0.813-5.69 0.106-8.6 3-13.6 2.55-4.41 4.18-7.25 3-12.4-1.72-2.92-3.82-5.42-6-8-1.25-1.64-2.5-3.29-3.75-4.94-2.22-3.03-2.22-3.03-5.25-5.06-2.06 0.626-4.08 1.36-6.08 2.13-0.61 0.234-1.22 0.467-1.85 0.708-1.96 0.754-3.92 1.52-5.88 2.28-1.28 0.493-2.56 0.985-3.83 1.48-5.03 1.94-10.1 3.88-15.1 5.88-1.15 0.457-2.3 0.913-3.49 1.38-1.02 0.411-2.05 0.822-3.1 1.25-2.7 0.887-2.7 0.887-6.7 0.887-6.34-19 9.98-53.1 17-71 0.99 0.66 1.98 1.32 3 2v3h7v-2c4.19-0.0292 8.37-0.0469 12.6-0.0625 1.18-0.00838 2.36-0.0168 3.58-0.0254 5.73-0.016 11.2 0.0368 16.9 1.09v-1h5c0.33-0.66 0.66-1.32 1-2 2.32-0.407 4.66-0.744 7-1v2c0.987 0.121 1.97 0.242 2.99 0.367 1.28 0.168 2.56 0.335 3.88 0.508 1.91 0.244 1.91 0.244 3.87 0.492 3.26 0.633 3.26 0.633 5.26 2.63 2.58 0.167 2.58 0.167 5 0v-3c1.49 0.495 1.49 0.495 3 1v2c1.49 0.495 1.49 0.495 3 1 1.68-0.969 3.35-1.97 5-3h3c-0.495-1.49-0.495-1.49-1-3 0.99-0.66 1.98-1.32 3-2 0.99 0.66 1.98 1.32 3 2v2l2-1v-3c1.03 0.206 2.06 0.413 3.12 0.625 3.75 0.628 3.75 0.628 6.69-0.562 4.42-1.47 8.57-1.23 13.2-1.06v2c1.65 0.66 3.3 1.32 5 2v2h3v-4c1.32-0.33 2.64-0.66 4-1v-3l4 1c0.33-0.66 0.66-1.32 1-2v2h2c0.33-0.66 0.66-1.32 1-2 0.433 0.66 0.866 1.32 1.31 2 0.557 0.66 1.11 1.32 1.69 2h3l-4-2c2.75-1.19 2.75-1.19 6-2 2.25 1.38 2.25 1.38 4 3h2v-3c1.81-1.5 1.81-1.5 4-3 0.447-0.516 0.895-1.03 1.36-1.56 2.58-2.25 5.18-1.9 8.49-2.03 3.58-0.674 4.1-3.33 7.84-3.59zm-138 112 1 2zm4 14 1 2z" fill="#F68B37"/>
<path transform="translate(436,512)" d="m0 0c12.4 1.31 22.4 4.59 31 14 1.88 3.19 1.88 3.19 3 6 0.371 0.722 0.743 1.44 1.12 2.19 0.875 1.81 0.875 1.81 1.88 4.81 0.393 0.971 0.786 1.94 1.19 2.94 4.46 11.8 6.49 24.3 1.81 36.4-0.946 1.92-1.95 3.82-3 5.69-0.593 1.07-1.19 2.13-1.8 3.23-5.08 8.66-11.2 16.2-17.8 23.8-7.8 9.23-13.1 19.3-18.5 30.1-3.68 7.36-7.44 14.7-11.2 22-1.34 2.63-2.68 5.27-4.02 7.9-4.57 8.97-9.26 17.8-14.2 26.6-3.8 6.78-7.39 13.6-10.9 20.6-1.28 2.49-2.56 4.99-3.85 7.48-0.316 0.615-0.632 1.23-0.958 1.86-2.11 4.1-4.24 8.19-6.38 12.3-0.826 1.57-0.826 1.57-1.67 3.18-1.03 1.96-2.06 3.92-3.09 5.87-0.458 0.872-0.916 1.74-1.39 2.64-0.397 0.753-0.794 1.51-1.2 2.28-1.97 4.01-3.32 7.57-3.72 12-0.0748 0.79-0.15 1.58-0.227 2.39-0.0735 0.888-0.0735 0.888-0.148 1.79-1.32-1.65-2.64-3.3-4-5-1.32 0.33-2.64 0.66-4 1v3c-0.33 1.32-0.66 2.64-1 4-2.97 0.33-5.94 0.66-9 1-0.33 1.32-0.66 2.64-1 4-3.73 0.575-7.21 1-11 1v3c-1.11 0.124-2.23 0.247-3.38 0.375-3.66 0.272-3.66 0.272-5.62 2.62h-3v2c-0.846-0.186-1.69-0.371-2.56-0.562-3.74-0.476-6.73-0.0341-10.4 0.562-2 0.0364-4 0.0488-6 0v2c-1.46 0.53-2.91 1.05-4.38 1.56-0.812 0.29-1.62 0.58-2.46 0.879-2.16 0.559-2.16 0.559-4.16-0.441v-3c-0.99-0.33-1.98-0.66-3-1-1.25 2.49-0.777 3.41 0 6-2.64 0.33-5.28 0.66-8 1l-1-3c-0.33-0.66-0.66-1.32-1-2h-4v-2h-7v2c-2.91 1.26-4.8 2-8 2-0.99 0.33-1.98 0.66-3 1h-5c-0.66 0.33-1.32 0.66-2 1-3-2-3-2-3.69-4.12-0.103-0.619-0.206-1.24-0.312-1.88h-7c0.33-1.65 0.66-3.3 1-5 1.65-0.33 3.3-0.66 5-1v-4c3.2-1.07 5.66-1.07 9-1 0.33-0.99 0.66-1.98 1-3 3-2 3-2 5.06-2.38 2.14-0.458 2.14-0.458 3.19-2.69 0.248-0.639 0.495-1.28 0.75-1.94h2c-0.33-0.99-0.66-1.98-1-3h3v-2h5v-4c3.47-0.99 3.47-0.99 7-2-0.206-0.557-0.413-1.11-0.625-1.69-0.375-2.31-0.375-2.31 1.62-7.31h11c-0.33-1.32-0.66-2.64-1-4 1.36-0.433 1.36-0.433 2.75-0.875 5.01-1.47 5.01-1.47 8.25-5.12h4c0.495-2.97 0.495-2.97 1-6 1.98-0.33 3.96-0.66 6-1 0.33-0.99 0.66-1.98 1-3 1.21-0.433 1.21-0.433 2.44-0.875 2.8-0.904 2.8-0.904 3.88-3.75 0.227-0.784 0.454-1.57 0.688-2.38 1.05 0.186 2.1 0.371 3.19 0.562 4.53 0.553 4.53 0.553 8.81-0.562 1.57-2.8 2.15-5.57 2.94-8.69 1.06-3.31 1.06-3.31 4.06-5.31 2.19-0.625 2.19-0.625 4-1 0.33-2.31 0.66-4.62 1-7 0.742-0.0825 1.49-0.165 2.25-0.25 3.29-0.898 4.61-2.13 6.75-4.75v-2h5v-2h2v-2h3v-3c0.804-0.227 1.61-0.454 2.44-0.688 0.846-0.433 1.69-0.866 2.56-1.31 0.705-2.27 0.705-2.27 1-5 1.25-3.75 1.25-3.75 3-7 2.69-0.938 2.69-0.938 5-1 0.33-1.65 0.66-3.3 1-5-0.99-0.33-1.98-0.66-3-1 0.312-1.94 0.312-1.94 1-4 0.99-0.33 1.98-0.66 3-1 1.11-1.88 1.11-1.88 2-4 0.66-0.99 1.32-1.98 2-3v-3c1.96-1.78 3.91-3.39 6-5 4.08-3.37 8.08-6.81 12.1-10.3 1.69-1.47 3.4-2.9 5.14-4.32 4.11-3.47 7.7-7.23 11.2-11.3 3.25-3.76 6.81-6.89 10.6-10.1 3.81-3.33 3.81-3.33 5.87-7.8 1.27-3.61 2.98-5.85 5.38-8.82 9.59-12.5 15.6-26.4 13.8-42.4-2.38-11.7-6.27-20.8-16.2-27.9-1.6-1.05-3.2-2.1-4.81-3.12-3-2-3-2-5-4zm26 31 1 2z" fill="#CA3142"/>
<path transform="translate(352,550)" d="m0 0c6.12-0.438 6.12-0.438 9 1 0.33 0.99 0.66 1.98 1 3 0.99 0.66 1.98 1.32 3 2 0.99 0.66 1.98 1.32 3 2 2.32 0.394 4.66 0.735 7 1v-2c5.54-0.369 5.54-0.369 7.88 1.5 0.371 0.495 0.743 0.99 1.12 1.5 0.33-0.66 0.66-1.32 1-2 0.227 1.28 0.454 2.56 0.688 3.88 1.03 4.67 2.86 8.55 5.07 12.8 4.24 8.07 4.24 8.07 4.24 12.4h-2c-0.377 0.841-0.377 0.841-0.762 1.7-2.31 4.3-5.66 7.86-8.79 11.6-1.03 1.22-2.06 2.45-3.08 3.68-1.72 2.06-3.45 4.12-5.18 6.17-0.551 0.664-1.1 1.33-1.67 2.01-0.528 0.618-1.06 1.24-1.6 1.87-0.466 0.553-0.933 1.11-1.41 1.68-1.78 1.56-3.2 1.92-5.5 2.32-0.33-2.31-0.66-4.62-1-7-2.48 0.495-2.48 0.495-5 1-0.33 0.99-0.66 1.98-1 3h-5c-0.911-3.07-1.09-5.8-1-9-2.48 0.495-2.48 0.495-5 1v2c-1.21 0.13-1.21 0.13-2.45 0.262-6.64 0.873-10.4 1.43-14.6 6.74h-2v3c-0.99 0.33-1.98 0.66-3 1-2.19-1.44-2.19-1.44-4-3-0.33 1.32-0.66 2.64-1 4-1.65-0.33-3.3-0.66-5-1-0.33-0.99-0.66-1.98-1-3-2.39 0.576-4.67 1.22-7 2v2h-2c-0.33 0.99-0.66 1.98-1 3v-3c-0.33 1.65-0.66 3.3-1 5-1.94-0.375-1.94-0.375-4-1-0.33-0.66-0.66-1.32-1-2-1.64-0.722-3.31-1.39-5-2v-1c-4.5-0.184-8.33-0.194-12.7 1.06-3.58 1.01-5.74 0.809-9.31-0.0625 0.33 0.99 0.66 1.98 1 3h-3v-2c-1.98-0.495-1.98-0.495-4-1-0.495 1.98-0.495 1.98-1 4h-2c-0.33 0.66-0.66 1.32-1 2h-2c-1.35 0.635-2.68 1.3-4 2v-2h-2c-0.66-0.66-1.32-1.32-2-2-0.495 1.49-0.495 1.49-1 3-4.5 0.25-4.5 0.25-6.8-0.906-2.68-1.33-5.3-2-8.2-2.72-1.03-0.26-2.06-0.521-3.12-0.789-3.85-0.785-7.15-0.788-10.9 0.414-0.99 0.66-1.98 1.32-3 2-2.59-0.0178-5.05-0.145-7.62-0.375-8.81-0.665-17.5-0.724-26.4-0.625-0.495 0.99-0.495 0.99-1 2-6.75-0.875-6.75-0.875-9-2 0.27-8.45 3.38-14.9 7.12-22.3 0.624-1.27 1.25-2.53 1.87-3.8 4.56-9.21 9.3-18.3 14.1-27.4 0.317-0.598 0.634-1.2 0.961-1.81 0.905-1.7 1.82-3.4 2.73-5.09 0.518-0.962 1.04-1.92 1.57-2.92 1.66-2.77 3.54-5.2 5.61-7.68 0.369 7.51 0.369 7.51-1.5 10-0.495 0.33-0.99 0.66-1.5 1 0.99 1.49 0.99 1.49 2 3v-3h2c0.66 0.99 1.32 1.98 2 3 0.99 0.33 1.98 0.66 3 1-0.33 0.66-0.66 1.32-1 2h7v-2c1.98-0.33 3.96-0.66 6-1-0.495-0.99-0.495-0.99-1-2 1.65 0.33 3.3 0.66 5 1v2c1.98 0.33 3.96 0.66 6 1v-2c9.43-2.28 18.3-3.57 28-4v1c1.98 0.66 3.96 1.32 6 2v3c2.33-0.959 2.33-0.959 4-4h3c0.531-0.174 1.06-0.348 1.61-0.527 3.3-0.652 6.3-0.314 9.64-0.0352 1.89 0.153 1.89 0.153 3.83 0.309 0.964 0.0838 1.93 0.168 2.92 0.254v-2c2.64 0.66 5.28 1.32 8 2 0.33-1.65 0.66-3.3 1-5 0.33 1.32 0.66 2.64 1 4 1.24-0.165 2.48-0.33 3.75-0.5 5.75-0.651 11.5-0.588 17.2-0.5 0.33-0.66 0.66-1.32 1-2h10c-0.33-0.99-0.66-1.98-1-3h5v-2c2.36-1.64 4.37-2.86 7.19-3.5 2.22-0.399 2.22-0.399 3.81-3.5z" fill="#F8A345"/>
<path transform="translate(618 609)" d="m0 0c1.21-0.00375 1.21-0.00375 2.44-0.00757 26-0.066 26-0.066 32.1 3.95 0.806 0.501 1.61 1 2.44 1.52 2.17 1.81 2.94 3.08 4 5.67 0.353 0.746 0.706 1.49 1.07 2.26 2.43 5.59 4.21 10.6 2.93 16.7-2.25 5.19-5.37 8.75-10 12l-2 2c0.797 0.346 0.797 0.346 1.61 0.699 4.55 2.1 7.93 3.76 10.4 8.3 2.28 8.42 3.37 17.3-0.688 25.3-5.88 6.83-11.5 10.2-20.6 11-3.85 0.116-7.69 0.138-11.5 0.119-1.42 0.00202-2.83 0.00494-4.25 0.0087-2.95 0.0044-5.9-0.00193-8.85-0.016-3.79-0.0172-7.57-0.00717-11.4 0.0107-2.92 0.0108-5.84 0.0074-8.75-3.83e-4 -1.4-2e-3 -2.79 4.56e-4 -4.19 0.00744-1.94 0.00759-3.89-0.00603-5.83-0.0207-1.11-0.00239-2.21-0.00477-3.35-0.00723-0.861-0.126-1.72-0.251-2.61-0.381-2.46-3.68-2.28-6.45-2.24-10.7-0.0019-0.784-0.0038-1.57-0.00575-2.38-0.00371-2.59 7e-3 -5.19 0.0182-7.78 0.00119-1.8 0.00164-3.6 0.00139-5.41 0.00156-3.78 0.00985-7.56 0.0233-11.3 0.017-4.84 0.0208-9.69 0.0201-14.5 2.72e-4 -3.72 0.00576-7.44 0.013-11.2 0.00318-1.79 0.00515-3.57 0.00589-5.36 0.00217-2.5 0.0109-4.99 0.0216-7.49-4.53e-4 -0.738-9.06e-4 -1.48-0.00137-2.24 0.0209-3.34 0.108-6.41 1.15-9.6 12.7-0.97 25.3-1.11 38-1.12zm-10 20.1c-0.828 3.12-1.16 5.89-1.19 9.12-0.0142 0.869-0.0284 1.74-0.043 2.63 0.013 2.45 0.013 2.45 2.23 4.24 3.08 0.448 6.2 0.324 9.31 0.312 1.28 0.0242 1.28 0.0242 2.59 0.0488 4.87 0.00377 8.12-0.227 12.1-3.36 1.58-1.58 1.28-3.19 1.38-5.38 0.049-0.791 0.098-1.58 0.148-2.4-0.346-2.38-0.346-2.38-2.37-4-4.65-1.81-9.02-1.54-14-1.41-0.979 0.0135-1.96 0.0271-2.97 0.041-2.41 0.0352-4.81 0.0845-7.22 0.146zm0 34c-0.981 2.94-1.16 4.99-1.19 8.06-0.0142 0.878-0.0284 1.76-0.043 2.66 0.00817 2.48 0.00817 2.48 2.23 4.28 2.03 0.31 2.03 0.31 4.36 0.266 0.869 0.00258 1.74 0.00516 2.63 0.00781 0.91-0.00773 1.82-0.0155 2.76-0.0234 0.895 0.00773 1.79 0.0155 2.71 0.0234 4.91-0.0145 8.93-0.352 13.5-2.27 0.0269-1.98 0.0463-3.96 0.0625-5.94 0.0116-1.1 0.0232-2.2 0.0352-3.34 0.215-2.64 0.215-2.64-1.1-3.72-1.93-0.0875-3.86-0.107-5.79-0.0977-1.17 0.00322-2.34 0.00645-3.54 0.00977-1.85 0.0126-1.85 0.0126-3.73 0.0254-1.24 0.00451-2.47 0.00902-3.74 0.0137-3.06 0.0118-6.13 0.0283-9.19 0.0488zm28 5v5h1v-5h-1z" fill="#FCFCFC"/>
<path transform="translate(809,610)" d="m0 0c4.04-0.204 8.08-0.328 12.1-0.438 1.14-0.0587 2.28-0.117 3.46-0.178 8.33-0.169 8.33-0.169 11.5 2.13 2.04 2.35 3.5 4.7 4.89 7.48 0.825 0.825 1.65 1.65 2.5 2.5 2.5 2.5 2.5 2.5 3.5 4.5 0.66 0.66 1.32 1.32 2 2 2 2 2 2 3 4 1.65 1.68 3.32 3.34 5 5 2.13 2.25 4.22 4.53 6.31 6.81 0.55 0.597 1.1 1.19 1.67 1.81 1.34 1.46 2.68 2.92 4.02 4.38 0.628-11 1.12-21.8 0.938-32.8 0.0625-3.19 0.0625-3.19 1.06-7.19h26c-0.33 29-0.66 58.1-1 88-24 0-24 0-29.4-3.81-1.25-1.69-2.43-3.42-3.56-5.19-1.46-1.8-2.94-3.6-4.44-5.38-0.739-0.923-1.48-1.85-2.24-2.8-2.39-2.91-4.89-5.68-7.45-8.45-3.75-4.07-7.21-8.25-10.5-12.7-1.29-1.81-1.29-1.81-3.38-2.68-0.33 13.5-0.66 27.1-1 41h-25c-1.21-3.63-1.14-6.94-1.13-10.7-0.00175-0.784-0.0035-1.57-0.00531-2.38-0.0044-2.59-0.00149-5.19 0.00189-7.78-6.74e-4 -1.8-0.00164-3.6-0.0029-5.41-0.00148-3.78 6.71e-4 -7.56 0.00534-11.3 0.00569-4.84 0.00242-9.69-0.00357-14.5-0.00361-3.72-0.00246-7.44 1.28e-4 -11.2 6.67e-4 -1.79-1.52e-4 -3.57-0.00248-5.36-0.00254-2.5 0.00133-4.99 0.0069-7.49-0.00202-0.738-0.00405-1.48-0.00613-2.24 0.0138-3.34 0.0942-6.41 1.14-9.6z" fill="#FBFBFB"/>
<path transform="translate(1154,610)" d="m0 0h28c-0.33 1.32-0.66 2.64-1 4-0.0812 2.1-0.108 4.2-0.0977 6.3 0.0025 1.09 5e-3 2.17 0.00757 3.29 0.0091 1.37 0.0182 2.75 0.0276 4.16 0.0206 4.37 0.0412 8.75 0.0625 13.2 15.8 0.495 15.8 0.495 32 1-0.0395-9.03-0.0395-9.03-0.0901-18.1-0.0025-1.13-5e-3 -2.25-0.00757-3.42-0.00524-1.15-0.0105-2.3-0.0159-3.49 0.114-3.02 0.114-3.02 1.11-7.02h28c0.0501 19.3-0.112 38.5-0.464 57.7-0.0621 3.43-0.121 6.87-0.181 10.3-0.116 6.65-0.236 13.3-0.355 20h-27c-1.16-3.48-1.11-6.19-1.1-9.86 0.0025-1.21 5e-3 -2.42 0.00757-3.67 0.0091-1.54 0.0182-3.08 0.0276-4.66 0.0206-4.89 0.0412-9.78 0.0625-14.8h-30c-1.14 3.43-1.21 6.24-1.32 9.86-0.0208 0.662-0.0416 1.32-0.063 2-0.0653 2.11-0.124 4.22-0.183 6.33-0.0432 1.43-0.0868 2.86-0.131 4.29-0.107 3.51-0.208 7.01-0.307 10.5-4.29 0.0868-8.58 0.14-12.9 0.188-1.83 0.0377-1.83 0.0377-3.71 0.0762-1.17 0.00967-2.33 0.0193-3.54 0.0293-1.08 0.0157-2.16 0.0314-3.27 0.0476-0.863-0.112-1.73-0.225-2.61-0.341-2.46-3.68-2.28-6.45-2.24-10.7-0.0019-0.784-0.0038-1.57-0.00575-2.38-0.00371-2.59 7e-3 -5.19 0.0182-7.78 0.00119-1.8 0.00164-3.6 0.00139-5.41 0.00156-3.78 0.00985-7.56 0.0233-11.3 0.017-4.84 0.0208-9.69 0.0201-14.5 2.72e-4 -3.72 0.00576-7.44 0.013-11.2 0.00318-1.79 0.00515-3.57 0.00589-5.36 0.00217-2.5 0.0109-4.99 0.0216-7.49-4.53e-4 -0.738-9.06e-4 -1.48-0.00137-2.24 0.0215-3.45 0.303-6.23 1.15-9.6z" fill="#FDFDFE"/>
<path transform="translate(1351,618)" d="m0 0c4.7 4.28 7.95 7.66 9 14 0.618 1.91 1.24 3.82 1.87 5.72 4.36 13.5 5.06 27-0.781 40.4-5.22 9.71-12.7 15.7-23 19.3-7.05 1.84-14 2.01-21.2 2.06-1.09 0.0102-2.18 0.0203-3.31 0.0308-12.1-0.129-22-2.86-31.5-10.5-4.49-4.66-7.31-10.2-10-16-0.352-0.625-0.704-1.25-1.07-1.89-4.67-10.5-1.98-25.9 1.85-36.3 5.38-12.6 12.7-18.8 25.3-23.9 16.8-5.47 38.5-3.13 52.9 7.05zm-49.2 19.7c-4.21 7.97-6.32 20-4.14 28.8 0.851 2.09 0.851 2.09 2.39 4.55h2c0.701 0.763 1.4 1.53 2.12 2.31 3.95 3.69 7.71 5.6 13.2 5.75 6.28-0.507 11.2-2.19 15.5-7 3.71-5.2 3.4-10.1 3.44-16.2 0.0206-0.813 0.0412-1.63 0.0625-2.46 0.0394-6.19-0.467-13.2-4.76-18-4.72-4.02-7.68-4.57-13.8-4.68-1.96-0.0561-1.96-0.0561-3.95-0.113-5.53 0.62-8.53 2.91-12 7.11z" fill="#FDFDFD"/>
<path transform="translate(1461,616)" d="m0 0c4.04 3.44 5.48 6.75 6 12 0.99 4.46 0.99 4.46 2 9h-26c-0.99-1.98-1.98-3.96-3-6-3.33-2.22-4.49-2.27-8.38-2.25-0.936-0.00516-1.87-0.0103-2.84-0.0156-2.98 0.284-5.14 0.881-7.79 2.27-0.894 2.55-0.894 2.55-1 5 3.61 1.54 7.16 2.61 11 3.52 1.72 0.423 1.72 0.423 3.48 0.855 2.38 0.579 4.76 1.15 7.14 1.71 20.5 5.09 20.5 5.09 25.4 12.9 0.702 1.65 1.37 3.32 2 5 0.334 0.625 0.668 1.25 1.01 1.89 3 6.39 2.25 13.6-0.0117 20.1-4.62 8.73-11.8 13.1-21 16-15.6 3.64-34.4 2.7-48.5-4.88-4.36-3.7-7.97-7.13-8.5-13.1h-2c-0.196-1.44-0.381-2.87-0.562-4.31-0.104-0.801-0.209-1.6-0.316-2.43-0.121-2.26-0.121-2.26 0.879-5.26h26v6c6.69 5.22 13.9 4.58 22 4 0.99-0.33 1.98-0.66 3-1 0.33-1.65 0.66-3.3 1-5-4.88-3.56-10.4-4.55-16.2-5.94-25.1-6.05-25.1-6.05-31.8-16.1-0.75-2.31-0.75-2.31-1-4h-2c-1.46-8.91-1.31-16 3.49-23.9 5.26-7.2 12.8-11.4 21.4-13.3 15.5-2.38 31.6-1.47 45.1 7.25z" fill="#FDFDFD"/>
<path transform="translate(689,610)" d="m0 0h29c-0.0838 3.23-0.168 6.46-0.254 9.79-0.0777 3.17-0.153 6.35-0.228 9.52-0.0529 2.18-0.108 4.37-0.166 6.55-0.848 17.6-0.848 17.6 0.648 35.1 4.49 4.49 9.45 6.7 15.7 7.17 4.62-0.349 8.28-2.6 11.9-5.42 1.94-2.4 1.81-3.98 1.83-7.05 0.0166-1.08 0.0331-2.16 0.0502-3.28 0.00325-1.17 0.00651-2.34 0.00986-3.54 0.0156-1.2 0.0312-2.4 0.0472-3.64 0.0476-3.85 0.0753-7.7 0.101-11.6 0.0365-3.84 0.0773-7.68 0.123-11.5 0.0271-2.39 0.0485-4.78 0.0635-7.18 0.0103-1.09 0.0205-2.18 0.0311-3.31 0.0065-0.955 0.013-1.91 0.0197-2.89 0.138-2.79 0.138-2.79 1.14-8.79h28c0.0231 7.47 0.0429 14.9 0.0549 22.4 5e-3 2.54 0.0118 5.07 0.0205 7.61 0.0122 3.66 0.0178 7.33 0.0222 11 0.00516 1.12 0.0103 2.24 0.0156 3.39 0.00171 24.4 0.00171 24.4-8.75 34.5-12.4 11.5-29.6 10.9-45.4 10.3-11.4-0.738-19.8-5.42-27.4-13.8-2.18-2.67-3.53-5.14-4.62-8.44-0.66-0.99-1.32-1.98-2-3-1.98-10.2-1.15-21.4-1.13-31.7 0.00539-3.08 1.32e-5 -6.15-0.00635-9.23 6.6e-4 -1.97 0.00194-3.95 0.00391-5.92-0.00202-0.911-0.00405-1.82-0.00613-2.76 0.00315-0.862 0.0063-1.72 0.00955-2.61 7.96e-4 -0.748 0.00159-1.5 0.00241-2.27 0.163-3.17 0.677-6.32 1.13-9.47z" fill="#FDFDFE"/>
<path transform="translate(471 609)" d="m0 0c1.41-0.0184 1.41-0.0184 2.84-0.0371 1.38-0.0029 1.38-0.0029 2.79-0.00586 0.837-0.00411 1.67-0.00822 2.54-0.0125 3.4 0.305 6.46 1.23 9.71 2.24-0.0155 0.726-0.0311 1.45-0.0471 2.2-0.141 6.86-0.247 13.7-0.316 20.6-0.0365 3.52-0.0859 7.05-0.165 10.6-0.0909 4.06-0.125 8.11-0.156 12.2-0.0361 1.26-0.0723 2.52-0.109 3.82-0.154 6.25-0.154 6.25 2.29 11.8 3.91 3.44 8.13 5.9 13.5 5.87 5.24-0.451 8.64-2.12 12.8-5.37 2.6-3.39 2.37-7.79 2.35-11.9-0.00495-1.54-0.00495-1.54-0.01-3.11-0.0083-1.1-0.0166-2.2-0.0251-3.33-0.00379-1.14-0.00757-2.28-0.0115-3.45-0.0122-3.63-0.0308-7.26-0.051-10.9-0.0266-4.78-0.0466-9.57-0.0625-14.3-0.0083-1.1-0.0166-2.2-0.0251-3.34-0.0033-1.02-0.00661-2.05-0.01-3.1-0.00524-0.9-0.0105-1.8-0.0159-2.73 0.114-2.42 0.114-2.42 1.11-6.42h28c0.495 1.98 0.495 1.98 1 4h-2c0.495 1.49 0.495 1.49 1 3 0.0975 2.72 0.14 5.41 0.133 8.12 0.00155 0.808 0.00309 1.62 0.00468 2.45 0.00247 2.62-0.00376 5.25-0.0125 7.87-0.00255 0.887-0.0051 1.77-0.00772 2.69-0.0177 5.21-0.0509 10.4-0.0977 15.6-0.0171 1.96-0.0297 3.92-0.0416 5.88-0.112 11.8-0.671 21.5-9.54 30.2-13.6 10.9-31 10.2-47.4 9.19-10.2-1.3-18.1-6.06-24.4-14.1-2.73-3.88-4.62-7.1-4.62-11.9h-2c-0.0231-8.2-0.0409-16.4-0.0518-24.6-0.00523-3.81-0.0123-7.61-0.0236-11.4-0.0108-3.67-0.0168-7.34-0.0194-11-0.00185-1.4-0.00547-2.81-0.0109-4.21-0.00721-1.96-0.00768-3.92-0.0078-5.88-0.00222-1.12-0.00444-2.23-0.00673-3.38 0.272-5.68 6.79-3.7 11.2-3.7z" fill="#FDFDFD"/>
<path transform="translate(1034,610)" d="m0 0h29c-0.165 2.99-0.33 5.98-0.5 9.06-0.439 9.08-0.637 18.2-0.677 27.3-0.00678 1.36-0.017 2.72-0.0308 4.08-0.582 12-0.582 12 3.84 22.7 4.95 3.53 9.2 5.43 15.4 4.94 4.72-1.47 7.87-3.18 11-7 0.606-2.66 0.606-2.66 0.53-5.62 0.0165-1.13 0.033-2.26 0.05-3.42-0.00191-1.21-0.00382-2.43-0.00578-3.68 0.0142-1.25 0.0283-2.5 0.0429-3.79 0.0348-3.32 0.0532-6.64 0.0628-9.96 0.0174-4.68 0.0646-9.35 0.11-14 0.0225-2.49 0.0383-4.98 0.0468-7.47 0.00703-1.13 0.0141-2.26 0.0213-3.42 0.00348-0.992 0.00696-1.98 0.0105-3.01 0.131-2.62 0.131-2.62 1.13-6.62h28c0.0461 7.74 0.0859 15.5 0.11 23.2 0.01 2.63 0.0236 5.25 0.041 7.88 0.0245 3.8 0.0357 7.59 0.0444 11.4 0.0103 1.16 0.0206 2.32 0.0313 3.51 0.00187 13.9-1.03 24.5-10.9 34.8-12.1 8.98-28.5 10.2-43 8.79-12.5-1.99-21.9-6.24-29.4-16.5v-2c-0.66-0.33-1.32-0.66-2-1v-4h-2c-1.09-3.28-1.12-5.67-1.11-9.12 7.55e-5 -1.26 1.51e-4 -2.52 2.29e-4 -3.82 0.00511-1.38 0.0103-2.75 0.0156-4.13 0.00187-1.41 0.00329-2.82 0.00429-4.22 0.00382-3.7 0.0136-7.41 0.0247-11.1 0.0102-3.78 0.0149-7.56 0.0198-11.3 0.0102-7.42 0.0298-14.8 0.0488-22.2z" fill="#FDFDFE"/>
<path transform="translate(1493,609)" d="m0 0h85c-0.33 7.59-0.66 15.2-1 23h-27c-0.0909 4.15-0.0909 4.15-0.184 8.38-0.422 18.9-0.886 37.8-1.82 56.6h-26c-1.46-5.12-2.25-7.92-2.24-12.9-0.00308-1.11-0.00615-2.23-0.00932-3.38 0.00719-1.18 0.0144-2.37 0.0218-3.58 6.87e-4 -1.84 6.87e-4 -1.84 0.00139-3.72 0.00301-2.59 0.0109-5.17 0.0233-7.76 0.0183-3.97 0.0205-7.94 0.0203-11.9 0.00491-2.51 0.0107-5.03 0.0176-7.54 0.00111-1.19 0.00223-2.39 0.00337-3.61 0.00638-1.1 0.0128-2.2 0.0193-3.33 0.00572-1.45 0.00572-1.45 0.0116-2.94 0.134-2.32 0.134-2.32 1.13-4.32h-28c-2.18-4.37-2.27-6.68-2.25-11.5-0.00516-1.31-0.0103-2.62-0.0156-3.97 0.266-3.53 0.266-3.53 2.27-7.53zm28 45v12h1v-12h-1zm0 32 1 2z" fill="#FDFDFE"/>
<path transform="translate(922,609)" d="m0 0h85c0.839 3.35 1.08 5.23 0.879 8.55-0.0431 0.762-0.0862 1.52-0.131 2.31-0.092 1.43-0.092 1.43-0.186 2.9-0.278 4.58-0.278 4.58-0.562 9.25-13.4 0.495-13.4 0.495-27 1-1.36 2.71-1.16 4.88-1.21 7.92-0.0199 1.24-0.0399 2.48-0.0604 3.76-0.017 1.36-0.0339 2.72-0.0506 4.08-0.0206 1.39-0.0416 2.77-0.063 4.16-0.0552 3.65-0.105 7.31-0.153 11-0.0502 3.73-0.106 7.45-0.161 11.2-0.108 7.31-0.207 14.6-0.307 21.9h-27c-0.702-4.21-1.13-7.6-1.13-11.8-0.00315-1.11-0.0063-2.22-0.00955-3.37 0.00202-1.18 0.00405-2.37 0.00613-3.59-0.00144-1.84-0.00144-1.84-0.0029-3.72-6.79e-4 -2.59 0.00116-5.18 0.00534-7.76 0.00537-3.97 3.91e-5 -7.94-0.00635-11.9 6.61e-4 -2.51 0.00194-5.03 0.00391-7.54-0.00202-1.19-0.00405-2.38-0.00613-3.61 0.00315-1.1 0.0063-2.2 0.00955-3.34 7.96e-4 -0.97 0.00159-1.94 0.00241-2.94 0.127-2.45 0.127-2.45 1.13-5.45h-29c-1.1-3.3-1.13-5.78-1.12-9.25-0.00258-1.1-0.00516-2.2-0.00781-3.33 0.136-3.49 0.639-6.96 1.13-10.4z" fill="#FDFDFE"/>
<path transform="translate(425,515)" d="m0 0c9.11 2.74 18.2 8.29 24 16 0.991 1.99 1.72 3.91 2.38 6.03 0.669 2.28 0.669 2.28 2.24 5.54 3.6 9.01 2.46 18.5-0.711 27.5-3.7 7.99-9.08 14.7-14.7 21.4-1.15 1.39-2.26 2.82-3.37 4.24-1.67 2.02-3.29 3.63-5.32 5.28-2.13 1.77-4.1 3.53-6.06 5.5-2.51 2.51-5.14 4.79-7.86 7.07-1.8 1.53-1.8 1.53-3.95 3.8-1.69 1.62-1.69 1.62-3.69 1.62-0.248 0.557-0.495 1.11-0.75 1.69-2.72 5.04-6.49 8.5-10.8 12.2-2.42 2.11-4.76 4.27-7.11 6.46-5.36 5.01-10.8 9.8-16.5 14.4-2.08 1.69-4.13 3.4-6.16 5.16-0.569 0.49-1.14 0.981-1.72 1.49-1.09 0.945-2.18 1.9-3.27 2.85-9.06 7.8-9.06 7.8-13.7 7.8-0.2 0.554-0.4 1.11-0.605 1.68-1.95 3.25-4.73 5.2-7.71 7.45-0.62 0.476-1.24 0.953-1.88 1.44-1.29 0.991-2.59 1.98-3.88 2.96-1.84 1.4-3.67 2.81-5.5 4.23-2.19 1.7-4.38 3.39-6.59 5.07-1.68 1.28-3.35 2.56-5 3.87-2.75 2.11-4.55 3.26-8.03 3.74-3.07 0.272-3.07 0.272-4.62 3.25-0.722 1.09-1.44 2.19-2.19 3.31-2.87 2.21-5.9 4.13-9 6 1.45-3.33 3.29-5.54 5.84-8.11 0.752-0.754 1.5-1.51 2.28-2.29 0.785-0.777 1.57-1.55 2.38-2.36 0.785-0.793 1.57-1.59 2.38-2.4 0.752-0.749 1.5-1.5 2.28-2.27 0.689-0.687 1.38-1.37 2.09-2.08 1.76-1.5 1.76-1.5 3.76-1.5v-2c1.46-1.45 1.46-1.45 3.48-3.14 4.39-3.74 8.58-7.64 12.8-11.6 6.86-6.48 13.8-12.9 20.8-19.2 1.04-0.957 2.08-1.91 3.12-2.87 8.6-7.92 8.6-7.92 12.7-11.4 4.58-3.97 8.98-8.14 13.4-12.3 6.68-6.25 13.4-12.5 20.2-18.6 26.2-22.4 26.2-22.4 39.7-52.8 0.0247-2.43 0.0404-4.85 0.0422-7.28 0.0122-0.834 0.0245-1.67 0.0371-2.53 0.0122-5.17-0.648-9.31-2.22-14.2v-3c-0.66-0.33-1.32-0.66-2-1-2.05-3.36-3.76-6.27-5-10h-2c-1.39-1.96-2.73-3.96-4-6zm-115 183 1 2z" fill="#BB1E31"/>
<path transform="translate(206,522)" d="m0 0 1 2c-0.981 2.19-0.981 2.19-2.54 4.93-0.574 1.02-1.15 2.03-1.74 3.08-0.629 1.09-1.26 2.18-1.9 3.31-0.631 1.11-1.26 2.22-1.91 3.37-1.31 2.3-2.62 4.61-3.94 6.9-1.86 3.24-3.71 6.49-5.56 9.74-2.79 4.9-5.59 9.79-8.39 14.7h-2c-0.228 0.811-0.456 1.62-0.691 2.46-1.62 4.4-3.85 8.22-6.25 12.2-0.443 0.759-0.886 1.52-1.34 2.3-2.02 3.41-3.89 6.24-6.72 9.01-5.03 6.54-10 13.5-12.2 21.5-2.88 8.79-7.91 17.2-12.8 25-12 19.1-26.5 45.3-21.3 68.5 0.711 2.36 1.47 4.69 2.33 7h2c1.03 1.27 2 2.6 2.94 3.94 4.46 5.93 10.4 11.7 17.1 15.1v3c-10.3-1.04-19-4.22-27-11v-2c-0.99-0.33-1.98-0.66-3-1-3.76-3.95-5.36-7.58-6-13-0.66-0.33-1.32-0.66-2-1-2-2-1.29-5.83-1.31-8.56 0-37.3 28.4-75.6 48.2-106 1.82-2.82 3.59-5.67 5.37-8.51 8.82-14.1 18-27.9 28.3-41 3.46-4.48 6.6-9.19 9.73-13.9 2.34-3.47 4.64-6.53 7.75-9.38l1 1c0.99-1.32 1.98-2.64 3-4z" fill="#84BF40"/>
<path transform="translate(155,627)" d="m0 0c1.14 3.42 0.913 3.87-0.406 7.04-0.493 1.22-0.493 1.22-0.995 2.47-0.544 1.33-0.544 1.33-1.1 2.68-13.8 32.8-13.8 32.8-13.6 67 1.12 2.02 1.12 2.02 3.24 3.97 1.88 1.88 1.88 1.88 1.88 3.88 5.75 3.12 11.5 5.03 18 6 0.121-0.797 0.242-1.59 0.367-2.41 1.66-10.5 1.66-10.5 3.63-15.6 4.16 2.26 7.41 5.09 10.7 8.4 0.788 0.778 0.788 0.778 1.59 1.57 1.1 1.09 2.2 2.19 3.3 3.29 1.68 1.68 3.38 3.34 5.08 5 1.07 1.07 2.14 2.13 3.21 3.2 0.509 0.495 1.02 0.99 1.54 1.5 2.95 2.99 3.53 3.64 3.53 8.04-2.98 2.94-6.7 4.29-10.5 5.88-0.624 0.26-1.25 0.519-1.89 0.787-1.32 0.546-2.63 1.09-3.95 1.63-2 0.823-4 1.66-6 2.49-1.28 0.531-2.57 1.06-3.85 1.59-1.16 0.478-2.32 0.957-3.51 1.45-3.12 1.11-6.01 1.74-9.28 2.17-1.15-3.44-0.821-4.21 0.375-7.5 0.276-0.773 0.552-1.55 0.836-2.34 0.26-0.712 0.521-1.42 0.789-2.16 0.495-1.49 0.495-1.49 1-3-0.907-0.0412-1.81-0.0825-2.75-0.125-8.17-1.17-16.5-6.09-22.2-11.9-1.39-1.96-2.73-3.96-4-6-0.66-0.66-1.32-1.32-2-2l1-2h-2c-5.6-11.2 0.924-30.9 4.58-41.9 5.58-16.1 13-29.6 23.4-43.1zm-5 10 1 2zm-2 3c-0.33 1.32-0.66 2.64-1 4h2c-0.33-1.32-0.66-2.64-1-4z" fill="#89C542"/>
<path transform="translate(420,504)" d="m0 0c-0.66 0.99-1.32 1.98-2 3h-2c-0.268 0.577-0.536 1.15-0.812 1.75-1.21 2.28-2.62 4.2-4.19 6.25 0.927 0.759 1.85 1.52 2.81 2.3 1.21 1 2.42 2.01 3.63 3.01 0.612 0.5 1.22 0.999 1.85 1.51 4.6 3.83 4.6 3.83 5.71 7.17 0.66 0.33 1.32 0.66 2 1 0.923 1.93 1.77 3.89 2.56 5.88 0.434 1.07 0.869 2.14 1.32 3.24 3.62 9.31 2.71 17.2-1.14 26.4-5.53 11.2-12.6 21.1-20.7 30.5-0.981 1.23-1.96 2.46-2.94 3.69-0.681 0.763-1.36 1.53-2.06 2.31h-2v2h-2v2c-3.46 3-3.46 3-6 3-0.33 0.99-0.66 1.98-1 3-0.639 0.144-1.28 0.289-1.94 0.438-0.681 0.186-1.36 0.371-2.06 0.562l-1 2c-1 2-1 2-3.12 2.75-0.619 0.0825-1.24 0.165-1.88 0.25 1.5-3.38 3.46-5.84 5.88-8.62 13.2-16 31.2-39 30.4-60.7-0.608-6.37-2.78-10.1-7.25-14.7-2.92-2.09-2.92-2.09-6-3-4.13 1.24-5.59 4.06-7.75 7.62-0.614 1-1.23 2.01-1.86 3.04-0.459 0.771-0.918 1.54-1.39 2.34-3.48-1.16-3.64-1.62-5.26-4.71-0.396-0.75-0.793-1.5-1.2-2.27-0.404-0.789-0.808-1.58-1.22-2.39-0.416-0.781-0.831-1.56-1.26-2.37-3.05-5.85-3.05-5.85-3.05-9.26-0.66-0.33-1.32-0.66-2-1-0.881-2.29-1.53-4.61-2.22-6.97-0.591-2.22-0.591-2.22-2.78-3.03-0.625-2.56-0.625-2.56-1-5 15.1-2.1 29.8-3.46 45-3zm-6 1 4 1zm-4 86 1 2zm-3 1 1 2zm-13 13 1 2zm-2 3v3z" fill="#C02F3F"/>
<path transform="translate(425,515)" d="m0 0c9.11 2.74 18.2 8.29 24 16 0.991 1.99 1.72 3.91 2.38 6.03 0.669 2.28 0.669 2.28 2.24 5.54 3.6 9.01 2.46 18.5-0.711 27.5-3.7 7.99-9.08 14.7-14.7 21.4-1.17 1.42-2.32 2.86-3.47 4.3-3.31 4.13-5.82 6.36-10.8 8.23-1.36 0.958-2.71 1.95-4 3v-2c-0.99 0.99-1.98 1.98-3 3-2.51-1.26-2.87-2.5-4-5 0.701-0.681 1.4-1.36 2.12-2.06 6.58-6.6 13.6-14.1 17-22.9 1.61-3.91 3.63-7.63 5.55-11.4 2.51-5.14 2.49-9.33 2.49-14.9 0.0184-1.25 0.0184-1.25 0.0371-2.53 0.0122-5.17-0.648-9.31-2.22-14.2v-3c-0.66-0.33-1.32-0.66-2-1-2.05-3.36-3.76-6.27-5-10h-2c-1.39-1.96-2.73-3.96-4-6z" fill="#C63041"/>
<path transform="translate(442,598)" d="m0 0c0.33 0.99 0.66 1.98 1 3-3.33 3.33-6.67 6.67-10 10-0.763 0.784-1.53 1.57-2.31 2.38-2.19 2.14-4.42 4.13-6.75 6.12-3.04 2.62-5.44 5.35-7.94 8.5-6.3 6-6.3 6-9 6-0.33 0.99-0.66 1.98-1 3-1.32 0.685-2.66 1.35-4 2-1.34 1.33-2.67 2.66-4 4-1.78 1.5-3.57 2.98-5.38 4.44-0.967 0.785-1.93 1.57-2.93 2.38-0.889 0.721-1.78 1.44-2.7 2.18-4.01 3.25-4.01 3.25-7.75 6.81-1.25 1.19-1.25 1.19-3.25 1.19-0.186 0.557-0.371 1.11-0.562 1.69-2.08 3.34-5.05 5.36-8.44 7.31h-2c-0.33 0.99-0.66 1.98-1 3-1.89 1.46-1.89 1.46-4.25 2.94-2.71 1.72-5.19 3.41-7.69 5.44-2.06 1.62-2.06 1.62-4.06 1.62v2c-1.97 1.38-3.98 2.7-6 4-0.908 0.743-1.82 1.49-2.75 2.25-2.25 1.75-2.25 1.75-4.25 1.75-0.33 0.99-0.66 1.98-1 3-1.38 0.978-2.77 1.95-4.21 2.85-6.16 3.96-11.8 8.73-17.5 13.3l-2.3 1.83c-0.717 0.574-1.43 1.15-2.17 1.74-1.83 1.26-1.83 1.26-3.83 1.26-0.495 1.49-0.495 1.49-1 3-1.63 1.06-3.31 2.04-5 3-1.22 0.818-2.43 1.65-3.62 2.5-0.855 0.603-0.855 0.603-1.73 1.22-1.67 1.23-1.67 1.23-3.02 2.72-2.13 2.05-4.49 3.45-7 5-2.94 1.81-5.67 3.6-8.35 5.79-2.27 1.78-2.27 1.78-4.27 1.78-0.33 0.99-0.66 1.98-1 3-2.22 1.79-4.42 3.44-6.75 5.06-0.932 0.67-0.932 0.67-1.88 1.35-2.73 1.93-5.13 3.49-8.26 4.71l-2.11 0.879c-0.33 0.99-0.66 1.98-1 3-1.77 1.15-3.55 2.28-5.37 3.36-3.25 2.03-6.34 4.27-9.45 6.52-5.15 3.72-10.4 7.23-15.8 10.6-2.21 1.41-4.31 2.91-6.41 4.48-3 2.06-3 2.06-6 2.06v4c-1.93 1.03-3.87 2.05-5.81 3.06-1.62 0.853-1.62 0.853-3.27 1.72-2.92 1.21-2.92 1.21-5.92 0.215 6.76-5.61 13.7-10.6 21.1-15.3 2.04-1.31 4.07-2.63 6.11-3.95 0.985-0.637 1.97-1.27 2.99-1.93 5.7-3.71 11.3-7.58 16.9-11.5 1.97-1.38 3.95-2.75 5.93-4.12 8.97-6.24 17.7-12.8 26.4-19.4 5.54-4.25 11.1-8.39 16.9-12.4 9.57-6.76 18.8-13.9 28.1-21.1 2.71-2.09 5.43-4.18 8.14-6.27 1.09-0.839 2.18-1.68 3.27-2.52 2.1-1.62 4.2-3.23 6.3-4.84 19.1-14.7 19.1-14.7 37.9-29.6 0.83-0.668 1.66-1.34 2.52-2.02 6.09-4.93 12-10 17.9-15.2 3.6-3.14 7.25-6.19 11-9.17 8.78-7.1 17.1-15 24.9-23.1 2.64-2.54 2.64-2.54 4.64-2.54 0.245-0.572 0.49-1.14 0.742-1.73 1.47-2.65 3.21-4.41 5.38-6.52 0.724-0.706 1.45-1.41 2.2-2.14 0.831-0.797 0.831-0.797 1.68-1.61z" fill="#000102"/>
<path transform="translate(430,581)" d="m0 0c0 3.8-1.2 5.11-3.38 8.19-0.626 0.901-1.25 1.8-1.9 2.73-0.57 0.687-1.14 1.37-1.73 2.08h-2c-0.227 0.557-0.454 1.11-0.688 1.69-1.69 2.97-3.84 4.96-6.31 7.31-2.71 2.64-5.24 5.27-7.56 8.25-2.45 2.77-3.03 3.14-6.44 3.75-0.33 0.99-0.66 1.98-1 3-1.35 1.36-1.35 1.36-3.06 2.75-0.637 0.527-1.27 1.05-1.93 1.6-0.663 0.545-1.33 1.09-2.01 1.65-5.24 4.49-10.3 9.13-15.4 13.8-6.88 6.32-13.8 12.6-20.9 18.7-1.41 1.26-2.75 2.59-4.06 3.95-1.62 1.56-1.62 1.56-3.62 1.56-0.268 0.639-0.536 1.28-0.812 1.94-1.19 2.06-1.19 2.06-4.19 3.06-0.495 1.49-0.495 1.49-1 3-1.33 0.333-2.67 0.667-4 1-0.495 1.49-0.495 1.49-1 3-1.39 1.4-1.39 1.4-3.25 2.94-3.86 3.28-7.64 6.64-11.4 10.1-0.85 0.78-0.85 0.78-1.72 1.58-2.91 2.7-5.64 5.41-8.16 8.49-2.4 2.82-4.38 4.08-7.5 5.94-0.413 0.763-0.825 1.53-1.25 2.31-2.67 4.1-6.63 6.17-10.8 8.69 1.45-3.33 3.29-5.54 5.84-8.11 1.13-1.13 1.13-1.13 2.28-2.29 0.785-0.777 1.57-1.55 2.38-2.36 0.785-0.793 1.57-1.59 2.38-2.4 1.13-1.12 1.13-1.12 2.28-2.27 0.689-0.687 1.38-1.37 2.09-2.08 1.76-1.5 1.76-1.5 3.76-1.5v-2c1.46-1.45 1.46-1.45 3.48-3.14 4.39-3.74 8.58-7.64 12.8-11.6 6.86-6.48 13.8-12.9 20.8-19.2 1.04-0.957 2.08-1.91 3.12-2.87 8.6-7.92 8.6-7.92 12.7-11.4 4.58-3.97 8.98-8.14 13.4-12.3 6.68-6.25 13.4-12.5 20.2-18.6 10.6-9.36 21.4-19.2 29.6-30.8z" fill="#000102"/>
<path transform="translate(761,625)" d="m0 0h4c-0.33 6.93-0.66 13.9-1 21h-2v6h2c0.33 2.97 0.66 5.94 1 9h-3v5h-2v7h-2v5c-0.99 0.495-0.99 0.495-2 1-0.33 0.99-0.66 1.98-1 3h-6v-1h5v-9h2v-7h-2v-7h2c-0.0116-0.75-0.0232-1.5-0.0352-2.27-0.0586-6.65 0.217-13.1 1.04-19.7 0.99-0.33 1.98-0.66 3-1 0.33-3.3 0.66-6.6 1-10z" fill="#FCFDFE"/>
<path transform="translate(520,610)" d="m0 0h28c0.33 1.32 0.66 2.64 1 4-5.4 0.8-10.5 1.07-16 0.938-2-0.166-2-0.166-3 1.06-5.53 0.235-5.53 0.235-8-1v52c-0.99-0.33-1.98-0.66-3-1-0.0253-7.33-0.0429-14.7-0.0549-22-0.00503-2.49-0.0119-4.99-0.0205-7.48-0.0121-3.58-0.0178-7.17-0.0222-10.8-0.00516-1.12-0.0103-2.23-0.0156-3.38-7.55e-5 -1.04-1.51e-4 -2.08-2.29e-4 -3.15-0.00222-0.915-0.00444-1.83-0.00673-2.77 0.12-2.46 0.12-2.46 1.12-6.46z" fill="#FCFDFE"/>
<path transform="translate(922,609)" d="m0 0h85c0.495 1.98 0.495 1.98 1 4h-86v-4z" fill="#000102"/>
<path transform="translate(1493,609)" d="m0 0h85c-0.33 1.32-0.66 2.64-1 4-28-0.33-56.1-0.66-85-1 0.33-0.99 0.66-1.98 1-3z" fill="#000102"/>
<path transform="translate(442,598)" d="m0 0c0.495 1.49 0.495 1.49 1 3-3.33 3.33-6.67 6.67-10 10-0.763 0.784-1.53 1.57-2.31 2.38-2.19 2.14-4.42 4.13-6.75 6.12-3.04 2.62-5.44 5.35-7.94 8.5-6.3 6-6.3 6-9 6-0.33 0.99-0.66 1.98-1 3-1.32 0.685-2.66 1.35-4 2-1.34 1.33-2.67 2.66-4 4-1.78 1.5-3.57 2.98-5.38 4.44-0.967 0.785-1.93 1.57-2.93 2.38-0.889 0.721-1.78 1.44-2.7 2.18-4.01 3.25-4.01 3.25-7.75 6.81-1.25 1.19-1.25 1.19-3.25 1.19-0.186 0.557-0.371 1.11-0.562 1.69-2.08 3.34-5.05 5.36-8.44 7.31h-2c-0.33 0.99-0.66 1.98-1 3-1.89 1.46-1.89 1.46-4.25 2.94-2.73 1.73-5.15 3.4-7.62 5.5-0.701 0.516-1.4 1.03-2.12 1.56-0.99-0.33-1.98-0.66-3-1 0.895-0.701 1.79-1.4 2.71-2.12 7.13-5.59 14.2-11.2 21.3-16.9 0.835-0.672 1.67-1.34 2.53-2.04 6.09-4.93 12-10 17.9-15.2 3.6-3.14 7.25-6.19 11-9.17 8.78-7.1 17.1-15 24.9-23.1 2.64-2.54 2.64-2.54 4.64-2.54 0.367-0.859 0.367-0.859 0.742-1.73 1.47-2.65 3.21-4.41 5.38-6.52 0.724-0.706 1.45-1.41 2.2-2.14 0.554-0.531 1.11-1.06 1.68-1.61z" fill="#000102"/>
<path transform="translate(1034,610)" d="m0 0h29c-0.33 1.32-0.66 2.64-1 4-0.984 0.0376-0.984 0.0376-1.99 0.0759-2.96 0.116-5.92 0.239-8.89 0.362-1.03 0.0393-2.07 0.0786-3.13 0.119-0.986 0.0419-1.97 0.0838-2.99 0.127-0.911 0.0367-1.82 0.0733-2.76 0.111-2.28 0.0711-2.28 0.0711-4.25 1.21-0.33 9.24-0.66 18.5-1 28-2.43-4.86-3.12-7.84-3.1-13.2 0.0025-1.09 5e-3 -2.18 0.00757-3.3 0.0091-1.38 0.0182-2.76 0.0276-4.19 0.0309-6.59 0.0309-6.59 0.0625-13.3z" fill="#FCFDFE"/>
<path transform="translate(618 609)" d="m0 0c1.21-0.00375 1.21-0.00375 2.44-0.00757 26-0.066 26-0.066 32.1 3.95 0.806 0.501 1.61 1 2.44 1.52 2.1 1.76 2.99 3.15 4 5.67-2.74-1.29-5.06-2.77-7.5-4.56-7.89-4.94-18.9-3.59-27.9-3.57-1.55-0.00144-1.55-0.00144-3.13-0.0029-2.16-6.75e-4 -4.32 0.00113-6.48 0.00534-3.29 0.00539-6.59 1.61e-5 -9.88-0.00635-2.11 6.6e-4 -4.22 0.00194-6.33 0.00391-0.976-0.00202-1.95-0.00405-2.96-0.00613-5.04 0.0172-9.83 0.275-14.8 1.14v-3c12.7-0.97 25.3-1.11 38-1.12z" fill="#000102"/>
<path transform="translate(1351,618)" d="m0 0c2.69 2.88 2.69 2.88 4 5-2.88-1.02-5.17-2.12-7.69-3.88-7.65-4.91-15-6.79-24-7-1.44-0.0446-1.44-0.0446-2.9-0.0901-13.1-0.279-25.8 0.293-36.1 9.47-1.11 1.16-2.22 2.33-3.32 3.5h-3c5.79-8.47 15.5-13.5 25.4-15.6 16.8-2.03 33.2-1.22 47.6 8.57z" fill="#000102"/>
<path transform="translate(1154,610)" d="m0 0h28c-0.33 1.65-0.66 3.3-1 5-0.99 0.33-1.98 0.66-3 1v-2c-0.976 0.24-1.95 0.48-2.96 0.727-1.91 0.445-1.91 0.445-3.86 0.898-1.26 0.302-2.53 0.603-3.83 0.914-3.36 0.461-3.36 0.461-6.36-1.54-0.99 0.33-1.98 0.66-3 1-0.33-0.33-0.66-0.66-1-1-1.11 4.05-1.34 8.07-1.56 12.2-0.0432 0.745-0.0864 1.49-0.131 2.26-0.106 1.83-0.207 3.66-0.307 5.49h-1c-0.197-3.42-0.381-6.83-0.562-10.2-0.0561-0.968-0.112-1.94-0.17-2.93-0.0483-0.935-0.0967-1.87-0.146-2.83-0.0471-0.859-0.0943-1.72-0.143-2.6 0.0217-2.38 0.0217-2.38 1.02-6.38z" fill="#FCFDFE"/>
<path transform="translate(832,634)" d="m0 0c0.33 0.66 0.66 1.32 1 2h3v2h2c1.32 2.64 1.1 4.68 1.06 7.62-0.00902 1-0.018 2.01-0.0273 3.04-0.0116 0.771-0.0232 1.54-0.0352 2.34h-10v-2h-5c0.959-0.402 0.959-0.402 1.94-0.812 2.39-1.07 2.39-1.07 3.06-4.19h-6v-2h6v-2h2c-0.0206-0.804-0.0412-1.61-0.0625-2.44 0.0625-2.56 0.0625-2.56 1.06-3.56z" fill="#FCFDFE"/>
<path transform="translate(405,587)" d="m0 0 1 2c-0.33 0.99-0.66 1.98-1 3 0.66 0.66 1.32 1.32 2 2 0.66 0.66 1.32 1.32 2 2-1.62 2.04-3.29 4.04-5 6h-2v2h-2v2c-3.46 3-3.46 3-6 3-0.33 0.99-0.66 1.98-1 3-0.959 0.217-0.959 0.217-1.94 0.438-0.681 0.186-1.36 0.371-2.06 0.562l-1 2c-1 2-1 2-3.12 2.75-0.928 0.124-0.928 0.124-1.88 0.25 1.51-3.41 3.51-5.93 5.94-8.75 5.88-7.06 10.9-14.6 16.1-22.2zm-11 18 1 2zm-2 3v3z" fill="#9C1929"/>
<path transform="translate(871,610)" d="m0 0h26c-0.33 1.32-0.66 2.64-1 4-5.3 0.939-10.1 0.987-15.4 0.562-2.5-0.186-4.99-0.371-7.56-0.562-0.33 7.59-0.66 15.2-1 23h-1c-0.842-5.11-1.15-10-1.12-15.2-0.00387-0.698-0.00773-1.4-0.0117-2.12 0.00662-3.48 0.286-6.29 1.14-9.7z" fill="#FCFDFE"/>
<path transform="translate(1214,610)" d="m0 0h28c-0.33 0.99-0.66 1.98-1 3h-23c-1.34 2.67-1.18 4.82-1.25 7.81-0.0329 1.16-0.0657 2.32-0.0996 3.51-0.0612 2.45-0.118 4.91-0.172 7.36-0.0342 1.16-0.0683 2.32-0.104 3.51-0.0251 1.07-0.0501 2.13-0.0759 3.23-0.303 2.58-0.303 2.58-2.3 4.58-1.27-5.86-1.15-11.7-1.12-17.6-0.0058-1.55-0.0058-1.55-0.0117-3.14 0.00129-0.998 0.00258-2 0.00391-3.02 0.00113-0.904 0.00226-1.81 0.00342-2.74 0.129-2.47 0.129-2.47 1.13-6.47z" fill="#FCFDFE"/>
<path transform="translate(1461,616)" d="m0 0c1.78 1.66 1.78 1.66 3 3-0.33 0.66-0.66 1.32-1 2-0.969-0.742-1.94-1.49-2.94-2.25-11.9-8.45-24-8.03-38.1-7.75-0.849-0.00645-1.7-0.0129-2.57-0.0195-7.34 0.285-13.2 4.42-19.4 8.02-1.33 0.68-2.66 1.35-4 2 4.97-7.12 11.6-10.5 20.1-12.3 15.6-2.3 31.3-1.2 44.9 7.31z" fill="#000102"/>
<path transform="translate(749,610)" d="m0 0h28c-0.33 1.32-0.66 2.64-1 4-8.37 1.2-16.6 1.07-25 1-0.33 4.95-0.66 9.9-1 15h-1v-20z" fill="#FCFDFE"/>
<path transform="translate(707,646)" d="m0 0h4c0.169 2.08 0.335 4.17 0.5 6.25 0.0928 1.16 0.186 2.32 0.281 3.52 0.163 2.41 0.219 4.82 0.219 7.23h-3c0.186 1.24 0.371 2.48 0.562 3.75 0.385 3.01 0.525 5.35-0.562 8.25h-3v-12h-2c0.33 2.97 0.66 5.94 1 9h-2v-2h-2v-12h3c0.33 0.66 0.66 1.32 1 2 0.99-0.66 1.98-1.32 3-2 0.583-2.66 0.583-2.66 0.688-5.62 0.0657-1 0.131-2.01 0.199-3.04 0.0374-0.771 0.0748-1.54 0.113-2.34-0.66-0.33-1.32-0.66-2-1z" fill="#FCFDFE"/>
<path transform="translate(1393 668)" d="m0 0c1.08 0.00524 2.17 0.0105 3.28 0.0159 1.75 0.00483 1.75 0.00483 3.54 0.00977 1.85 0.0126 1.85 0.0126 3.73 0.0254 1.85 0.00677 1.85 0.00677 3.74 0.0137 3.06 0.0118 6.13 0.0283 9.19 0.0488-0.33 1.98-0.66 3.96-1 6-0.99-0.33-1.98-0.66-3-1-1.63-0.0814-3.26-0.108-4.89-0.0977-0.938 0.00322-1.88 0.00645-2.84 0.00977-1.46 0.0126-1.46 0.0126-2.96 0.0254-0.988 0.00451-1.98 0.00902-2.99 0.0137-2.44 0.0118-4.88 0.0282-7.32 0.0488v3h-2c-0.0424-2.33-0.0409-4.67 0-7 1-1 1-1 3.5-1.11z" fill="#FCFDFE"/>
<path transform="translate(689,610)" d="m0 0h29c-0.33 2.31-0.66 4.62-1 7-0.83-0.329-1.66-0.657-2.52-0.996-3.93-1.13-7.16-1.17-11.2-1.07-7.06 0.159-7.06 0.159-9.25-0.938v2c-1.32-0.33-2.64-0.66-4-1-0.33-1.65-0.66-3.3-1-5z" fill="#FCFDFE"/>
<path transform="translate(594,611)" d="m0 0c0.33 0.99 0.66 1.98 1 3h-2v2c-3.63-0.33-7.26-0.66-11-1 0.0116 1 0.0232 2.01 0.0352 3.04 0.0684 8.71-0.203 17.3-1.04 26h-2c-0.0494-4.24-0.0857-8.47-0.11-12.7-0.0101-1.44-0.0237-2.88-0.041-4.32-0.0242-2.07-0.0356-4.14-0.0444-6.21-0.0105-1.25-0.0209-2.49-0.0317-3.78 0.227-2.98 0.227-2.98 2.23-4.98 4.36-1.01 8.54-1.09 13-1z" fill="#FCFDFE"/>
<path transform="translate(530,645)" d="m0 0h2v23h-2v4h-4c-0.33-3.96-0.66-7.92-1-12 0.66-0.33 1.32-0.66 2-1l-1-1c-0.0406-1.67-0.0427-3.33 0-5 0.66-0.33 1.32-0.66 2-1 0.731-2.31 1.4-4.65 2-7z" fill="#FCFDFF"/>
<path transform="translate(337,670)" d="m0 0c0.495 1.49 0.495 1.49 1 3-4.14 4.28-8.57 8.05-13.2 11.8-3.76 3.12-6.74 6.41-9.82 10.2-1.13 1.06-2.29 2.09-3.5 3.06-3.94 3.27-7.47 6.86-11 10.6-2.37 2.26-4.63 3.82-7.5 5.38 1.45-3.33 3.29-5.54 5.84-8.11 0.752-0.754 1.5-1.51 2.28-2.29 0.785-0.777 1.57-1.55 2.38-2.36 0.785-0.793 1.57-1.59 2.38-2.4 0.752-0.749 1.5-1.5 2.28-2.27 1.03-1.03 1.03-1.03 2.09-2.08 1.76-1.5 1.76-1.5 3.76-1.5v-2c1.22-1.23 1.22-1.23 3.06-2.75 4.44-3.77 8.69-7.71 12.9-11.7 0.683-0.64 1.37-1.28 2.07-1.94 1.64-1.54 3.29-3.08 4.93-4.62z" fill="#050203"/>
<path transform="translate(884,635)" d="m0 0c0.66 2.97 1.32 5.94 2 9 0.976-2.93 1.08-4.96 1-8 0.66-0.33 1.32-0.66 2-1 0.956 4 1.1 7.71 1.06 11.8-0.00902 1.16-0.018 2.32-0.0273 3.52-0.0116 0.88-0.0232 1.76-0.0352 2.67-0.99-0.33-1.98-0.66-3-1v-5h-2v6c-0.99-0.33-1.98-0.66-3-1v-5h-2v-2h-2v-3h2v-6c3-1 3-1 4-1z" fill="#FCFDFF"/>
<path transform="translate(625,611)" d="m0 0c0.33 0.99 0.66 1.98 1 3-6.62 1.12-6.62 1.12-10 0-0.33 0.66-0.66 1.32-1 2-0.99-0.33-1.98-0.66-3-1v3c-1.42 0.0545-2.83 0.093-4.25 0.125-0.789 0.0232-1.58 0.0464-2.39 0.0703-2.66-0.22-4.18-0.66-6.36-2.2-0.75-2.12-0.75-2.12-1-4 9.01-0.633 18-1.17 27-1z" fill="#FCFDFE"/>
<path transform="translate(1420,636)" d="m0 0c0.702 0.299 1.4 0.597 2.13 0.905 2.93 1.12 5.8 1.88 8.85 2.61 1.15 0.282 2.3 0.565 3.48 0.855 2.38 0.579 4.76 1.15 7.14 1.71 20.3 5.05 20.3 5.05 25.4 12.9-2.62-0.972-4.96-1.98-7.34-3.45-6.83-3.98-14.6-5.63-22.3-7.05-11.5-2.17-11.5-2.17-16.3-5.5-0.33-0.99-0.66-1.98-1-3z" fill="#000102"/>
<path transform="translate(181,553)" d="m0 0c0 4.17-2.2 6.57-4.5 9.88-0.924 1.35-1.85 2.71-2.77 4.06-0.462 0.681-0.924 1.36-1.4 2.06-1.94 2.91-3.76 5.88-5.58 8.88-3.13 5.13-6.35 10.2-9.75 15.1-0.612 0.904-1.22 1.81-1.86 2.74-0.625 0.911-1.25 1.82-1.89 2.76-0.572 0.835-1.14 1.67-1.73 2.53-1.52 1.97-1.52 1.97-3.52 2.97 1.3-3.47 2.81-6.51 4.8-9.63 0.838-1.32 0.838-1.32 1.69-2.67 0.6-0.933 1.2-1.87 1.82-2.83 0.618-0.965 1.24-1.93 1.87-2.93 4.22-6.57 8.54-13.1 12.9-19.5 0.531-0.778 1.06-1.56 1.61-2.36 2.63-3.81 5.31-7.51 8.26-11.1z" fill="#050606"/>
<path transform="translate(1451,667)" d="m0 0h6v4h2c1.26 2.52 1.1 4.31 1.06 7.12-0.00902 0.91-0.018 1.82-0.0273 2.76-0.0116 0.699-0.0232 1.4-0.0352 2.12-0.99-0.33-1.98-0.66-3-1v-3h-3c-0.33-1.32-0.66-2.64-1-4h-3c-0.125-5.75-0.125-5.75 1-8z" fill="#FCFDFF"/>
<path transform="translate(1343,664)" d="m0 0c0.99 0.33 1.98 0.66 3 1h-2c0.33 1.65 0.66 3.3 1 5 1.65 0.33 3.3 0.66 5 1v3h-2c0.66 0.66 1.32 1.32 2 2v3h-2v2h-4c0.66-1.32 1.32-2.64 2-4-0.99-0.33-1.98-0.66-3-1v2h-4v4h-5c0.66-0.33 1.32-0.66 2-1v-4h4v-2c0.66-0.33 1.32-0.66 2-1-0.33-0.66-0.66-1.32-1-2h2c-0.66-1.65-1.32-3.3-2-5h2v-3z" fill="#FCFDFE"/>
<path transform="translate(442,598)" d="m0 0c0.495 1.49 0.495 1.49 1 3-3.33 3.33-6.67 6.67-10 10-0.763 0.784-1.53 1.57-2.31 2.38-2.19 2.14-4.42 4.13-6.75 6.12-2.29 1.97-4.12 3.73-6 6.12-2.59 3.18-5.54 5.09-8.94 7.38 0-3 0-3 1.28-4.53 0.59-0.533 1.18-1.07 1.79-1.61 0.65-0.595 1.3-1.19 1.97-1.8 1.03-0.923 1.03-0.923 2.09-1.87 1.34-1.21 2.67-2.43 4.01-3.64 0.651-0.589 1.3-1.18 1.97-1.78 1.81-1.69 3.54-3.43 5.26-5.21 2.63-2.55 2.63-2.55 4.63-2.55 0.245-0.572 0.49-1.14 0.742-1.73 1.47-2.65 3.21-4.41 5.38-6.52 0.724-0.706 1.45-1.41 2.2-2.14 0.554-0.531 1.11-1.06 1.68-1.61z" fill="#060707"/>
<path transform="translate(1182,641)" d="m0 0c10.2 0.33 20.5 0.66 31 1-0.33 0.99-0.66 1.98-1 3h-28c-0.66-1.32-1.32-2.64-2-4z" fill="#000102"/>
<path transform="translate(586,638)" d="m0 0h2c2.03 3.35 2.22 5.87 2.12 9.75-0.018 0.985-0.0361 1.97-0.0547 2.98-0.0348 1.12-0.0348 1.12-0.0703 2.27h-2c0.99 1.49 0.99 1.49 2 3 0.195 2.26 0.195 2.26 0.125 4.69-0.018 0.808-0.0361 1.62-0.0547 2.45-0.0348 0.922-0.0348 0.922-0.0703 1.86 0.66 0.33 1.32 0.66 2 1-5.75 0.125-5.75 0.125-8-1 0.33-2.31 0.66-4.62 1-7h2c0.027-2.58 0.0469-5.17 0.0625-7.75 0.00838-0.73 0.0168-1.46 0.0254-2.21 0.016-3.53-0.135-6.65-1.09-10z" fill="#FCFDFF"/>
<path transform="translate(105,730)" d="m0 0c0.473 0.375 0.946 0.75 1.43 1.14 9.15 7.08 17.1 10.7 28.6 12.9v3c-11-1.4-19.7-4.28-28-12-1.5-2.88-1.5-2.88-2-5z" fill="#000102"/>
<path transform="translate(166,702)" d="m0 0c4.19 2.26 7.41 5.12 10.7 8.47 0.526 0.524 1.05 1.05 1.59 1.59 1.1 1.1 2.2 2.2 3.3 3.31 1.69 1.7 3.38 3.38 5.08 5.07 1.07 1.07 2.14 2.15 3.21 3.22 0.509 0.505 1.02 1.01 1.54 1.53 3.53 3.58 3.53 3.58 3.53 5.81-3.28-1.4-5.07-2.99-7.31-5.75-2.8-3.32-5.71-6.07-9.07-8.81-1.61-1.44-2.82-2.91-4.12-4.63-3.03-3.41-5.26-4.32-9.5-5.81l1-4z" fill="#000102"/>
<path transform="translate(868,661)" d="m0 0c1.12 3.75 1.12 3.75 0 6h2c0.33-0.66 0.66-1.32 1-2h2v2h2c-0.66 1.65-1.32 3.3-2 5h2c-0.33 0.99-0.66 1.98-1 3-0.577-0.186-1.15-0.371-1.75-0.562-2.47-0.481-3.86-0.115-6.25 0.562-0.0544-1.58-0.093-3.17-0.125-4.75-0.0232-0.882-0.0464-1.76-0.0703-2.67 0.204-2.69 0.83-4.28 2.2-6.58z" fill="#FCFDFE"/>
<path transform="translate(531,669)" d="m0 0h5v3h2c-0.33-0.99-0.66-1.98-1-3h4c0.33 1.65 0.66 3.3 1 5-4.88 1-4.88 1-6 1-1.67 0.326-3.33 0.658-5 1v4h-4c0.289-0.701 0.577-1.4 0.875-2.12 1.15-2.93 2.15-5.88 3.12-8.88z" fill="#FCFDFF"/>
<path transform="translate(1301,670)" d="m0 0c0.424 0.41 0.848 0.82 1.29 1.24 4.59 4.21 8.45 6.77 14.9 6.75 6.65-0.513 11.6-2.8 16.8-6.99-1.45 3.38-3.16 5.65-6 8-6.86 1.82-15.8 2.72-22.2-0.875-2.81-2.12-2.81-2.12-4.81-4.12v-4z" fill="#000102"/>
<path transform="translate(592,624)" d="m0 0c0.33 0.66 0.66 1.32 1 2h2v20c0.66 0.33 1.32 0.66 2 1-0.33 1.32-0.66 2.64-1 4h-2c-3-5.75-3-5.75-3-8h2v-2h-4v-4h4c-0.33-0.99-0.66-1.98-1-3-0.068-1.73-0.085-3.46-0.0625-5.19 0.00902-0.901 0.018-1.8 0.0273-2.73 0.0116-0.687 0.0232-1.37 0.0352-2.08z" fill="#FCFDFF"/>
<path transform="translate(747,671)" d="m0 0c0.33 0.66 0.66 1.32 1 2-3.78 4.97-6.24 7.42-12.6 8.41-5.2 0.179-8.49 0.0903-12.5-3.41-0.964-0.975-1.91-1.97-2.81-3 0.33-0.66 0.66-1.32 1-2 1.21 0.959 1.21 0.959 2.44 1.94 3.97 2.61 7.84 3.41 12.6 3.06 4.46-1.45 7.8-3.59 11-7z" fill="#000102"/>
<path transform="translate(461,609)" d="m0 0c3.35-0.0586 6.71-0.0938 10.1-0.125 1.41-0.0251 1.41-0.0251 2.86-0.0508 5.45-0.0379 9.94 0.363 15.1 2.18-0.33 0.99-0.66 1.98-1 3-0.33-0.33-0.66-0.66-1-1-2.84-0.242-5.66-0.424-8.5-0.562-0.779-0.0432-1.56-0.0864-2.36-0.131-5.39-0.281-10.7-0.344-16.1-0.307 0.33-0.99 0.66-1.98 1-3z" fill="#000102"/>
<path transform="translate(857,656)" d="m0 0c6.62-0.125 6.62-0.125 10 1v3h-3v8c-0.33-0.66-0.66-1.32-1-2-2.53-0.656-2.53-0.656-5-1-0.33-2.97-0.66-5.94-1-9z" fill="#FCFDFE"/>
<path transform="translate(1094,634)" d="m0 0h1c0.922 7.18 1.14 14.3 1.19 21.6 0.0129 0.893 0.0258 1.79 0.0391 2.71 0.00129 0.841 0.00258 1.68 0.00391 2.55 0.00411 0.757 0.00822 1.51 0.0125 2.3-0.243 1.89-0.243 1.89-2.24 3.89-2.1-10.7-1.28-22.2 0-33z" fill="#FCFDFF"/>
<path transform="translate(1104,659)" d="m0 0h1v10c1.32-0.33 2.64-0.66 4-1l2 1c0.99-0.33 1.98-0.66 3-1 0 3 0 3-1 6-0.99-0.33-1.98-0.66-3-1-0.33-0.66-0.66-1.32-1-2-0.66 1.32-1.32 2.64-2 4h-3v3h-2v-10h2v-9z" fill="#FCFDFF"/>
<path transform="translate(372,661)" d="m0 0c0.66 0.33 1.32 0.66 2 1v2c-1.46 1.29-1.46 1.29-3.38 2.62-0.94 0.669-0.94 0.669-1.9 1.35-1.73 1.02-1.73 1.02-3.73 1.02-0.33 0.99-0.66 1.98-1 3-1.89 1.46-1.89 1.46-4.25 2.94-2.73 1.73-5.15 3.4-7.62 5.5-0.701 0.516-1.4 1.03-2.12 1.56-0.99-0.33-1.98-0.66-3-1 0.895-0.701 1.79-1.4 2.71-2.12 11.5-8.52 11.5-8.52 22.3-17.9z" fill="#060707"/>
<path transform="translate(1417,675)" d="m0 0c0.833 0.49 1.67 0.98 2.52 1.48 3.99 1.74 6.77 1.85 11.1 1.77 1.29-0.0155 2.58-0.0309 3.91-0.0469 2.69-0.158 4.91-0.401 7.46-1.2-1 3-1 3-2.7 4.17-5.65 2.04-12.9 1.71-18.5-0.418-2.81-1.75-2.81-1.75-3.75-3.94-0.0206-0.598-0.0412-1.2-0.0625-1.81z" fill="#000102"/>
<path transform="translate(155,627)" d="m0 0c1 3 1 3-0.188 5.94-1.7 2.88-3.43 4.76-5.81 7.06-0.33 0.99-0.66 1.98-1 3-0.598 0.577-1.2 1.15-1.81 1.75-2.76 2.84-4.31 5.77-6.19 9.25-1-3-1-3 0.625-6.26 0.779-1.3 1.57-2.59 2.38-3.87 0.409-0.668 0.818-1.34 1.24-2.02 3.25-5.22 6.79-10.1 10.8-14.9z" fill="#010303"/>
<path transform="translate(1064,671)" d="m0 0c0.473 0.422 0.946 0.843 1.43 1.28 4.96 4.11 9.01 6.25 15.6 5.72 4.19-1.1 7.69-3.22 11-6-2.05 4.58-4.38 7.01-9 9-5.62 0.787-10.2 0.222-15-3-4-4.32-4-4.32-4-7z" fill="#000102"/>
<path transform="translate(590,671)" d="m0 0h4v12c-1.32-0.33-2.64-0.66-4-1v-2h-3c0.33-1.98 0.66-3.96 1-6h2v-3z" fill="#FCFDFF"/>
<path transform="translate(812 612)" d="m0 0c0.953 0.0105 1.91 0.0209 2.89 0.0317 1.55 0.00967 1.55 0.00967 3.12 0.0195 1.62 0.0251 1.62 0.0251 3.27 0.0508 1.09 0.00902 2.18 0.018 3.3 0.0273 2.69 0.0236 5.39 0.0566 8.08 0.0977v2c-4.95 0.33-9.9 0.66-15 1v2h-2v-2c-1.42 0.309-1.42 0.309-2.88 0.625-1.03 0.124-2.06 0.247-3.12 0.375l-2-2c2-2 2-2 4.34-2.23z" fill="#FCFDFE"/>
<path transform="translate(1034,610)" d="m0 0h29c-0.33 1.32-0.66 2.64-1 4-0.33-0.33-0.66-0.66-1-1-1.93-0.0875-3.86-0.107-5.79-0.0977-1.17 0.00322-2.34 0.00645-3.54 0.00977-1.85 0.0126-1.85 0.0126-3.73 0.0254-1.24 0.00451-2.47 0.00902-3.74 0.0137-3.06 0.0118-6.13 0.0283-9.19 0.0488-0.33-0.99-0.66-1.98-1-3z" fill="#000102"/>
<path transform="translate(809,610)" d="m0 0c4.06-0.145 8.12-0.234 12.2-0.312 1.73-0.0628 1.73-0.0628 3.49-0.127 8.38-0.121 8.38-0.121 11.2 1.57 1.38 1.38 1.38 1.38 3.08 3.86-0.33 0.66-0.66 1.32-1 2-0.571-0.655-1.14-1.31-1.73-1.98-5.01-3.09-9.82-2.44-15.6-2.27-1.12 0.018-2.24 0.0361-3.4 0.0547-2.76 0.047-5.52 0.113-8.29 0.195v-3z" fill="#000102"/>
<path transform="translate(689,610)" d="m0 0h29c-0.33 1.32-0.66 2.64-1 4-0.33-0.33-0.66-0.66-1-1-2-0.0876-4-0.107-6-0.0977-1.82 0.00483-1.82 0.00483-3.68 0.00977-1.28 0.00838-2.56 0.0168-3.88 0.0254-1.92 0.00677-1.92 0.00677-3.89 0.0137-3.18 0.0118-6.37 0.0283-9.55 0.0488v-3z" fill="#000102"/>
<path transform="translate(635,676)" d="m0 0c-1 3-1 3-3 4-2.74 0.288-5.44 0.514-8.19 0.688-0.743 0.0599-1.49 0.12-2.25 0.182-5 0.32-8.82-0.23-13.6-1.87 0.33-0.66 0.66-1.32 1-2 0.585 0.00524 1.17 0.0105 1.77 0.0159 2.66 0.0208 5.32 0.0338 7.98 0.0466 0.92 0.00838 1.84 0.0168 2.79 0.0254 0.889 0.00322 1.78 0.00645 2.7 0.00977 1.23 0.00786 1.23 0.00786 2.48 0.0159 2.86-0.142 5.45-1.11 8.29-1.11z" fill="#000102"/>
<path transform="translate(1094,610)" d="m0 0h28c-0.33 0.99-0.66 1.98-1 3h-27v-3z" fill="#000102"/>
<path transform="translate(520,610)" d="m0 0h28c0.33 1.32 0.66 2.64 1 4-0.99-0.33-1.98-0.66-3-1-1.99-0.0829-3.99-0.107-5.98-0.0977-1.75 0.00483-1.75 0.00483-3.53 0.00977-1.82 0.0126-1.82 0.0126-3.68 0.0254-1.84 0.00677-1.84 0.00677-3.72 0.0137-3.03 0.0118-6.06 0.0283-9.1 0.0488v-3z" fill="#000102"/>
<path transform="translate(1214,610)" d="m0 0h28c-0.33 0.99-0.66 1.98-1 3h-27v-3z" fill="#000102"/>
<path transform="translate(1154,610)" d="m0 0h28v3h-28v-3z" fill="#000102"/>
<path transform="translate(749,610)" d="m0 0h28c-0.33 0.99-0.66 1.98-1 3h-27v-3z" fill="#000102"/>
<path transform="translate(490,671)" d="m0 0c1.3 1.18 1.3 1.18 2.62 2.38 4.21 3.46 7.96 4.92 13.4 4.44 3.52-0.565 6.01-1.72 8.94-3.81 0.99-0.66 1.98-1.32 3-2-1.53 3.88-3.41 5.87-7 8-6.49 1.6-11.6 1.47-17.4-1.8-1.56-1.2-1.56-1.2-3.56-4.2v-3z" fill="#000102"/>
<path transform="translate(140,708)" d="m0 0c1.38 1.29 2.71 2.63 4 4v2c5.68 3.08 11.6 5.2 18 6v2c-5.76 0.345-10.1 0.411-15-3-2.56-2.5-4.98-5.04-7-8v-3z" fill="#000102"/>
<path transform="translate(1390,668)" d="m0 0h26c-0.33 0.99-0.66 1.98-1 3h-26c0.33-0.99 0.66-1.98 1-3z" fill="#000102"/>
<path transform="translate(949,636)" d="m0 0h1v55h-1v-55z" fill="#FEFEFE"/>
<path transform="translate(880,624)" d="m0 0h5c0.33 0.66 0.66 1.32 1 2 0.33-0.66 0.66-1.32 1-2h3v6h-10v-6z" fill="#FCFDFF"/>
<path transform="translate(871,610)" d="m0 0h26c-0.33 0.99-0.66 1.98-1 3h-25v-3z" fill="#000102"/>
<path transform="translate(609,646)" d="m0 0c2.81 0.0118 5.57 0.0988 8.38 0.25 0.781 0.0271 1.56 0.0541 2.37 0.082 1.13 0.0599 1.13 0.0599 2.28 0.121 0.69 0.0325 1.38 0.0651 2.09 0.0986 2.37 0.564 3.32 1.62 4.89 3.45-2.75 0.0811-5.5 0.141-8.25 0.188-0.777 0.0251-1.55 0.0503-2.36 0.0762-5.82 0.0747-5.82 0.0747-8.94-1.78-0.719-0.737-0.719-0.737-1.45-1.49l1-1z" fill="#FCFDFE"/>
<path transform="translate(310,695)" d="m0 0c0.33 0.99 0.66 1.98 1 3-2.67 2.67-5.33 5.33-8 8-0.825 0.866-1.65 1.73-2.5 2.62-2.37 2.26-4.63 3.82-7.5 5.38 1.39-3.15 3.02-5.26 5.48-7.67 1.01-0.996 1.01-0.996 2.03-2.01 0.699-0.682 1.4-1.36 2.12-2.07 0.706-0.697 1.41-1.39 2.14-2.11 1.74-1.72 3.49-3.43 5.23-5.14z" fill="#000102"/>
<path transform="translate(808,682)" d="m0 0h3v15h2c0.33-0.66 0.66-1.32 1-2 0.99 1.49 0.99 1.49 2 3h-7c-1.14-3.42-1.1-6.09-1.06-9.69 0.00902-1.18 0.018-2.36 0.0273-3.57 0.0116-0.904 0.0232-1.81 0.0352-2.74z" fill="#FCFDFE"/>
<path transform="translate(878,647)" d="m0 0h2c0.953 4.76 1.08 9.17 1 14h-2v5h-1v-8h-2v-2h2v-3h-2v-2h2v-4z" fill="#FCFDFF"/>
<path transform="translate(632,642)" d="m0 0c0.33 0.99 0.66 1.98 1 3-2.99 1.72-5.11 2.24-8.55 2.2-1.27-0.00967-1.27-0.00967-2.56-0.0195-0.873-0.0168-1.75-0.0335-2.64-0.0508-0.888-0.00902-1.78-0.018-2.69-0.0273-2.19-0.0235-4.37-0.0564-6.56-0.0977-0.33-0.66-0.66-1.32-1-2 0.832-0.0297 0.832-0.0297 1.68-0.0601 2.52-0.0955 5.05-0.205 7.57-0.315 0.873-0.0309 1.75-0.0619 2.64-0.0938 0.844-0.0387 1.69-0.0773 2.56-0.117 0.775-0.0314 1.55-0.0628 2.35-0.0952 2.41-0.349 4.09-1.12 6.2-2.32z" fill="#000102"/>
<path transform="translate(125,724)" d="m0 0c0.949 0.846 1.9 1.69 2.88 2.56 3.83 3.32 7.94 6.07 12.2 8.82 0.641 0.532 1.28 1.06 1.94 1.61v3h-3v-2c-0.99-0.33-1.98-0.66-3-1v-2c-0.874-0.387-0.874-0.387-1.77-0.781-2.41-1.32-4.05-2.77-5.98-4.72-0.614-0.608-1.23-1.22-1.86-1.84-1.39-1.66-1.39-1.66-1.39-3.66z" fill="#000102"/>
<path transform="translate(162,582)" d="m0 0c0.33 0.66 0.66 1.32 1 2-3.21 4.86-6.45 9.7-9.75 14.5-0.572 0.835-1.14 1.67-1.73 2.53-1.52 1.97-1.52 1.97-3.52 2.97 1.57-4.46 3.87-8.19 6.44-12.1 0.395-0.62 0.79-1.24 1.2-1.88 1.9-2.94 3.73-5.67 6.37-8z" fill="#060707"/>
<path transform="translate(397,599)" d="m0 0 1 2c-0.94 1.23-0.94 1.23-1.9 2.48-0.826 1.09-1.65 2.18-2.48 3.27-0.413 0.539-0.825 1.08-1.25 1.63-1.71 2.26-3.28 4.42-4.53 6.96-0.844 1.66-0.844 1.66-2.97 2.41-0.928 0.124-0.928 0.124-1.88 0.25 1.6-3.66 3.88-6.44 6.44-9.5 2.6-3.12 5.16-6.23 7.56-9.5z" fill="#000102"/>
<path transform="translate(584,627)" d="m0 0h2v3h3v-3h2c-0.33 2.97-0.66 5.94-1 9-0.99 0.33-1.98 0.66-3 1-0.33-1.65-0.66-3.3-1-5h-2v-5z" fill="#FCFDFF"/>
<path transform="translate(597,624)" d="m0 0c0.33 0.66 0.66 1.32 1 2h2c-0.33 5.28-0.66 10.6-1 16-0.66-0.33-1.32-0.66-2-1v-17z" fill="#FCFDFF"/>
<path transform="translate(462,651)" d="m0 0c2.56 3.79 2.03 7.41 1.62 11.8-0.0567 0.697-0.113 1.39-0.172 2.11-0.141 1.71-0.296 3.43-0.453 5.14h-1c-1.4-6.12-2.23-11.7-2-18 0.66-0.33 1.32-0.66 2-1z" fill="#FCFDFF"/>
<path transform="translate(264,422)" d="m0 0c0.33 0.99 0.66 1.98 1 3-4.95 4.95-9.9 9.9-15 15 0-3 0-3 2.05-5.3 1.34-1.27 1.34-1.27 2.7-2.57 3.36-3.22 6.42-6.43 9.25-10.1z" fill="#233312"/>
<path transform="translate(285,400)" d="m0 0c0 4.03-1.6 5.49-4 8.69-0.743 0.994-1.49 1.99-2.25 3.01-0.866 1.14-0.866 1.14-1.75 2.3-0.99-0.66-1.98-1.32-3-2 3.63-3.96 7.26-7.92 11-12z" fill="#020304"/>
<path transform="translate(1353,635)" d="m0 0h3c1.32 3.62 2 6.1 2 10-1.32 0.33-2.64 0.66-4 1-0.33-3.63-0.66-7.26-1-11z" fill="#FCFDFF"/>
<path transform="translate(1462,671)" d="m0 0h2c1.26 2.52 1.1 4.31 1.06 7.12-0.00902 0.91-0.018 1.82-0.0273 2.76-0.0116 0.699-0.0232 1.4-0.0352 2.12h-3v-12z" fill="#FCFDFF"/>
<path transform="translate(442,598)" d="m0 0c0.33 0.99 0.66 1.98 1 3-1.67 1.67-3.33 3.33-5 5-1.3 1.39-1.3 1.39-2.62 2.81-2.38 2.19-2.38 2.19-5.38 2.19 1.44-1.61 2.87-3.21 4.31-4.81 0.801-0.893 1.6-1.79 2.43-2.71 1.71-1.88 3.44-3.71 5.26-5.48z" fill="#030404"/>
<path transform="translate(425,515)" d="m0 0c5.8 1.49 10.2 4.59 15 8-0.99 0.495-0.99 0.495-2 1-0.557-0.495-1.11-0.99-1.69-1.5-2.2-1.76-2.2-1.76-4.81-1.31-0.825-0.0619-1.65-0.124-2.5-0.188-2.31-3-2.31-3-4-6z" fill="#000102"/>
<path transform="translate(825,668)" d="m0 0h3c0.33 2.97 0.66 5.94 1 9h-4v-9z" fill="#FCFDFF"/>
<path transform="translate(820,668)" d="m0 0h3c0.33 2.97 0.66 5.94 1 9h-4v-9z" fill="#FCFDFF"/>
<path transform="translate(147,639)" d="m0 0c0.75 1.75 0.75 1.75 1 4-1.28 1.38-2.63 2.7-4 4-1.46 2.28-2.72 4.61-4 7-1-3-1-3 0.145-5.41 0.55-0.875 1.1-1.75 1.67-2.65 0.543-0.878 1.09-1.76 1.64-2.66 1.54-2.28 1.54-2.28 3.54-4.28z" fill="#000202"/>
<path transform="translate(207,554)" d="m0 0c1.1 3.31 1.22 5.7 0 9-2.56 1.31-2.56 1.31-5 2 1.23-4.05 2.7-7.44 5-11z" fill="#A47131"/>
<path transform="translate(224,777)" d="m0 0c-1.26 3.79-2.55 4.22-5.94 6.19-0.896 0.53-1.79 1.06-2.71 1.61-2.35 1.21-2.35 1.21-4.35 1.21v-2c1.64-1.22 1.64-1.22 3.81-2.5 0.708-0.423 1.42-0.846 2.14-1.28 0.674-0.402 1.35-0.804 2.04-1.22 3-2 3-2 5-2z" fill="#A71B2C"/>
<path transform="translate(1356,659)" d="m0 0h2v12h-3c0.33-3.96 0.66-7.92 1-12z" fill="#FCFDFF"/>
<path transform="translate(1351,659)" d="m0 0h2v12h-3c0.33-3.96 0.66-7.92 1-12z" fill="#FCFDFF"/>
<path transform="translate(1336,651)" d="m0 0c0.99 0.33 1.98 0.66 3 1v10c-3-3-3-3-3.29-5.04 0.0977-1.99 0.195-3.97 0.293-5.96z" fill="#FCFDFF"/>
<path transform="translate(1282,631)" d="m0 0h3c1 3 1 3 0 6h-5v-4h2v-2z" fill="#FCFDFF"/>
<path transform="translate(160,603)" d="m0 0c0 3.94-1.48 5.83-3.5 9.19-0.975 1.63-0.975 1.63-1.97 3.29-0.758 1.25-0.758 1.25-1.53 2.52-0.33-0.66-0.66-1.32-1-2 1.97-4.56 4.46-9.46 8-13z" fill="#BB1E31"/>
<path transform="translate(210,512)" d="m0 0c0.66 1.32 1.32 2.64 2 4-1.32 0.33-2.64 0.66-4 1 0.66-1.65 1.32-3.3 2-5z" fill="#160608"/>
<path transform="translate(216,504)" d="m0 0c0.33 0.99 0.66 1.98 1 3-0.33 0.66-0.66 1.32-1 2-0.99-0.33-1.98-0.66-3-1 0.99-1.32 1.98-2.64 3-4z" fill="#030404"/>
<path transform="translate(308,701)" d="m0 0c0.66 0.33 1.32 0.66 2 1-2.48 1.49-2.48 1.49-5 3 0.33-0.99 0.66-1.98 1-3 0.66-0.33 1.32-0.66 2-1z" fill="#BB1E31"/>
<path transform="translate(207,517)" d="m0 0c0 3 0 3-1 5-0.66-0.33-1.32-0.66-2-1 0.99-1.32 1.98-2.64 3-4z" fill="#010203"/>
<path transform="translate(268,418)" d="m0 0v3c-0.66-0.33-1.32-0.66-2-1l2-2z" fill="#000102"/>
<path transform="translate(1212,683)" d="m0 0 1 4z" fill="#FCFDFF"/>
<path transform="translate(1298,660)" d="m0 0 1 4z" fill="#060707"/>
<path transform="translate(161,600)" d="m0 0 2 1c-0.66 0.66-1.32 1.32-2 2v-3z" fill="#BB1E31"/>
<path transform="translate(203,522)" d="m0 0v3z" fill="#010203"/>
<path transform="translate(208,519)" d="m0 0v3z" fill="#8BCA44"/>
<path transform="translate(390,612)" d="m0 0 1 2c-0.66-0.33-1.32-0.66-2-1 0.33-0.33 0.66-0.66 1-1z" fill="#7E1623"/>
<path transform="translate(271,415)" d="m0 0c0.33 0.66 0.66 1.32 1 2-0.66-0.33-1.32-0.66-2-1l1-1z" fill="#020203"/>
<path transform="translate(207,787)" d="m0 0 2 1z" fill="#BB1E31"/>
<path transform="translate(83,666)" d="m0 0 2 1z" fill="#8BCA44"/>
</svg>
